<svg xmlns="http://www.w3.org/2000/svg" xmlns:xlink="http://www.w3.org/1999/xlink" id="Layer_1" x="0" y="0" enable-background="new 0 0 295.9 223.6" version="1.1" viewBox="0 0 295.9 223.6" xml:space="preserve"><metadata><?xpacket begin="﻿" id="W5M0MpCehiHzreSzNTczkc9d"?><?xpacket end="w"?></metadata><switch><g><g><path fill="#FF00AD" d="M42.2,150.5c-1.8,0-3.4,0.6-4.6,1.7c-1.2,1.2-1.8,2.9-1.8,5v28c0,2.9-0.3,4.8-0.9,5.9 c-0.6,1.1-1.4,1.5-2.8,1.5c-1.3,0-2.3-0.6-3.5-1.3c-1.1-0.7-2.3-1.5-3.9-1.5c-2,0-3.5,0.8-4.5,1.9c-1,1.2-1.4,2.7-1.4,4.2 c0,1.5,0.3,2.7,0.9,3.8c0.6,1,1.6,1.8,3,2.7l0,0l0,0c2.5,1.6,6.4,2.6,9.8,2.6c6.9,0,11-2.4,13.3-5.8c2.3-3.4,2.8-7.8,2.8-11.9 v-30.1c0-2.2-0.7-3.9-1.8-5C45.6,151.1,44,150.5,42.2,150.5z"/><path fill="#FF00AD" d="M81.6,163.7c-1.8,0-3.4,0.7-4.5,1.9c-1.1,1.2-1.7,2.8-1.7,4.5v17.7c0,2-0.8,3.4-1.8,4.4 c-1.1,0.9-2.6,1.4-3.9,1.4c-1.4,0-2.9-0.5-3.9-1.4c-1.1-0.9-1.8-2.4-1.8-4.4v-17.7c0-1.8-0.6-3.4-1.7-4.5 c-1.1-1.2-2.7-1.9-4.5-1.9c-1.8,0-3.4,0.7-4.5,1.9c-1.1,1.2-1.7,2.8-1.7,4.5v19.3c0,5.4,2.1,9.4,5.5,11.9 c3.3,2.6,7.9,3.8,12.7,3.8c4.8,0,9.3-1.2,12.7-3.8c3.3-2.6,5.5-6.5,5.5-11.9v-19.3c0-1.8-0.6-3.4-1.7-4.5 C85,164.4,83.4,163.7,81.6,163.7z"/><path fill="#FF00AD" d="M123.4,193.3L123.4,193.3l-9.3-11.8l5.8-5.8l0,0c1.4-1.3,2.4-2.3,3.1-3.3c0.7-1,1.1-1.9,1.1-3.1 c0-1.5-0.6-3-1.7-4c-1.1-1.1-2.6-1.7-4.4-1.7c-1.5,0-2.7,0.5-3.8,1.3c-1.1,0.8-2,1.8-3,2.8l-8.4,8.4v-23.1c0-1.8-0.6-3.4-1.7-4.5 c-1.1-1.2-2.7-1.9-4.5-1.9c-1.8,0-3.4,0.7-4.5,1.9c-1.1,1.2-1.7,2.8-1.7,4.5V198c0,1.8,0.6,3.4,1.7,4.5c1.1,1.2,2.7,1.9,4.5,1.9 c1.8,0,3.4-0.7,4.5-1.9c1.1-1.2,1.7-2.8,1.7-4.5v-11.6l10.7,13.9l0,0c1.2,1.5,2.1,2.6,3.1,3.2c1,0.6,2.1,0.9,3.4,0.9 c2.1,0,3.7-0.8,4.7-2c1-1.1,1.5-2.6,1.5-3.8c0-1-0.4-2-1-2.9C124.7,194.9,124,194,123.4,193.3z"/><path fill="#FF00AD" d="M161.6,187.2c1.1-0.9,1.6-2.3,1.6-4.4c0-5.1-1.8-10-5.1-13.7c-3.3-3.7-8.1-6.1-13.8-6.1 c-6,0-11.1,2.5-14.7,6.3c-3.6,3.9-5.7,9.1-5.7,14.7c0,5.8,2,11.1,5.5,14.9c3.5,3.8,8.7,6.2,14.9,6.2c4.4,0,8.9-0.9,12.4-2.6 c1.7-0.8,3.2-1.8,4.3-3c1.1-1.2,1.7-2.6,1.7-4.1c0-1.6-0.6-2.9-1.6-3.9c-1-0.9-2.3-1.5-3.7-1.5c-1.5,0-3.1,1-4.9,1.8 c-1.9,0.9-4,1.7-6.8,1.7c-3.6,0-5.7-1-7-2.1c-1.1-1-1.5-2.2-1.6-3.2h20.1C159.1,188.2,160.6,188,161.6,187.2z M139,175.9 c1.2-1.3,2.9-2.3,5-2.3c2.1,0,3.8,1,5,2.3c1.1,1.1,1.7,2.5,1.8,3.6h-13.6C137.3,178.4,137.9,177,139,175.9z"/><path fill="#FF00AD" d="M237.1,169.1c-3.4-3.8-8.4-6.2-14.3-6.2c-5.9,0-10.8,2.3-14.3,6.2c-2.8,3.1-4.6,7.3-5.2,11.9 c-0.5-4.6-2.3-8.8-5-11.9c-3.2-3.8-7.8-6.2-12.9-6.2c-4.4,0-7,1.2-8.9,2.7v-12.5c0-1.8-0.6-3.4-1.7-4.5c-1.1-1.2-2.7-1.9-4.5-1.9 c-1.8,0-3.4,0.7-4.5,1.9c-1.1,1.2-1.7,2.8-1.7,4.5V198c0,1.8,0.6,3.4,1.7,4.5c1.1,1.2,2.7,1.9,4.5,1.9c2.7,0,4.5-1.6,5.4-3.3 c2.5,2.8,5.5,4,9.7,4c5.1,0,9.7-2.4,12.9-6.2c2.7-3.1,4.4-7.3,5-11.9c0.6,4.6,2.4,8.8,5.2,11.9c3.4,3.8,8.4,6.2,14.3,6.2 c5.9,0,10.8-2.3,14.3-6.2c3.4-3.8,5.4-9.1,5.4-14.9C242.5,178.2,240.6,172.9,237.1,169.1z M228.2,190.5c-1.2,1.6-3,2.6-5.4,2.7 c-2.4,0-4.2-1-5.4-2.7c-1.2-1.6-1.9-4-1.9-6.5c0-2.5,0.7-4.9,1.9-6.5c1.2-1.6,3-2.6,5.4-2.7c2.4,0,4.2,1,5.4,2.7 c1.2,1.6,1.9,4,1.9,6.5C230.2,186.6,229.5,188.9,228.2,190.5z M191.2,184c0,2.5-0.7,4.9-1.9,6.5c-1.2,1.6-3,2.6-5.4,2.7 c-2.4,0-4.2-1-5.4-2.7c-1.2-1.6-1.9-4-1.9-6.5c0-2.5,0.7-4.9,1.9-6.5c1.2-1.6,3-2.6,5.4-2.7c2.4,0,4.2,1,5.4,2.7 C190.5,179.2,191.2,181.5,191.2,184z"/><polygon fill="#FF00AD" points="254.1 166.6 254.1 166.6 254.1 166.6"/><polygon fill="#FF00AD" points="265.4 166.6 265.4 166.6 265.4 166.6"/><path fill="#FF00AD" d="M276.7,193L276.7,193l-9.4-10l5.6-5.9l0,0c1.6-1.8,2.7-2.9,3.5-3.9c0.7-1,1.1-1.9,1-3.1 c0-2-0.7-3.6-1.9-4.7c-1.1-1.1-2.6-1.7-4.1-1.7c-1.4,0-2.4,0.2-3.4,0.6c-1,0.5-1.8,1.2-2.6,2.3l-5.7,7l-5.7-7 c-0.9-1.1-1.7-1.8-2.6-2.3c-1-0.5-2-0.6-3.4-0.6c-1.5,0-3,0.6-4.1,1.7c-1.1,1.1-1.9,2.7-1.9,4.7c0,1.1,0.3,2,1,3.1 c0.7,1,1.8,2.2,3.5,3.9l0,0l5.6,5.9l-9.4,10l0,0c-0.9,1.1-2.4,2.6-2.4,5.2c0,1.9,0.7,3.4,1.9,4.5c1.2,1.1,2.7,1.7,4.4,1.7 c1.3,0,2.3-0.4,3.2-1c0.9-0.6,1.5-1.4,2.2-2.1l7.6-8.8l7.6,8.8c0.7,0.8,1.3,1.5,2.2,2.1c0.9,0.6,1.9,1,3.2,1 c1.7,0,3.3-0.6,4.4-1.7c1.2-1.1,1.9-2.6,1.9-4.5C279.1,195.6,277.6,194.1,276.7,193z"/></g><g><path fill="#FFF" d="M132.5,112.1c3.3,2.2,8.7,3.5,13.3,3.5c19,0.1,22.1-12.8,22.1-24.1l0.2-42.2c0-5.8-3.4-8.8-8.3-8.8 c-4.8,0-8.3,2.9-8.3,8.8l-0.2,39.3c0,8.2-1.7,11.1-6,11c-4.2,0-6.2-3.9-10.3-3.9c-5.2,0-7.6,3.9-7.6,7.9 C127.4,107.7,128.8,109.6,132.5,112.1z"/><path fill="#FF00AD" d="M124.1,126.4l49.3,0.2c13.1,0.1,23.8-10.5,23.9-23.7l0.2-49.3c0.1-13.1-10.5-23.8-23.7-23.9l-49.3-0.2 c-13.1-0.1-23.8,10.5-23.9,23.7l-0.2,49.3C100.3,115.6,110.9,126.3,124.1,126.4z M135,95.7c4.1,0,6.1,3.9,10.3,3.9 c4.3,0,6-2.8,6-11l0.2-39.3c0-5.8,3.5-8.8,8.3-8.8c4.8,0,8.3,3,8.3,8.8l-0.2,42.2c-0.1,11.3-3.1,24.2-22.1,24.1 c-4.6,0-10-1.4-13.3-3.5c-3.7-2.5-5.1-4.3-5.1-8.5C127.4,99.5,129.8,95.7,135,95.7z"/></g></g></switch></svg>