<?xml version="1.0" encoding="UTF-8" standalone="no"?>
<svg
   id="Discord-Logo"
   viewBox="0 -5.322 126.64397 126.644"
   version="1.1"
   sodipodi:docname="Discord-Symbol-Black.svg"
   width="126.64397"
   height="126.644"
   inkscape:version="1.4.2 (ebf0e940d0, 2025-05-08)"
   xmlns:inkscape="http://www.inkscape.org/namespaces/inkscape"
   xmlns:sodipodi="http://sodipodi.sourceforge.net/DTD/sodipodi-0.dtd"
   xmlns="http://www.w3.org/2000/svg"
   xmlns:svg="http://www.w3.org/2000/svg">
  <defs
     id="defs1" />
  <sodipodi:namedview
     id="namedview1"
     pagecolor="#ffffff"
     bordercolor="#000000"
     borderopacity="0.25"
     inkscape:showpageshadow="2"
     inkscape:pageopacity="0.0"
     inkscape:pagecheckerboard="0"
     inkscape:deskcolor="#d1d1d1"
     inkscape:zoom="5.5758316"
     inkscape:cx="79.539705"
     inkscape:cy="59.632361"
     inkscape:window-width="1707"
     inkscape:window-height="1003"
     inkscape:window-x="0"
     inkscape:window-y="0"
     inkscape:window-maximized="1"
     inkscape:current-layer="Discord-Logo" />
  <path
     id="Discord-Symbol-Black"
     d="m 81.150008,10 c -1.2376,2.1973 -2.3489,4.4704 -3.3591,6.794 -9.5975,-1.4396 -19.3718,-1.4396 -28.9945,0 -0.985,-2.3236 -2.1216,-4.5967 -3.3591,-6.794 -9.0166,1.5407 -17.8059,4.2431 -26.1405,8.0568 C 2.7790084,42.5304 -1.6913916,66.3725 0.53120838,89.8863 10.204408,97.0339 21.039508,102.4893 32.581708,105.9747 c 2.6014,-3.4854 4.8998,-7.1981 6.8698,-11.0623 -3.738,-1.3891 -7.3497,-3.1318 -10.8098,-5.1523 0.9092,-0.6567 1.7932,-1.3386 2.6519,-1.9953 20.281,9.547 43.7696,9.547 64.0758,0 0.8587,0.7072 1.7427,1.3891 2.6519,1.9953 -3.4601,2.0457 -7.0718,3.7632 -10.835,5.1776 1.97,3.8642 4.2683,7.5769 6.8698,11.0623 11.541902,-3.4854 22.376902,-8.9156 32.050902,-16.0631 2.626,-27.2771 -4.496,-50.9172 -18.817,-71.8548 -8.308902,-3.8137 -17.098202,-6.5162 -26.114802,-8.0316 z m -38.8698,65.4144 c -6.2383,0 -11.4159,-5.6575 -11.4159,-12.6535 0,-6.996 4.9755,-12.6788 11.3907,-12.6788 6.4152,0 11.5169,5.708 11.4159,12.6788 -0.101,6.9708 -5.026,12.6535 -11.3907,12.6535 z m 42.0774,0 c -6.2637,0 -11.3907,-5.6575 -11.3907,-12.6535 0,-6.996 4.9755,-12.6788 11.3907,-12.6788 6.4152,0 11.4917,5.708 11.3906,12.6788 -0.101,6.9708 -5.026,12.6535 -11.3906,12.6535 z" />
</svg>
