<svg class="icon ada-logo-full" aria-hidden="true" fill="none" height="198" viewBox="0 0 198 198" width="198" xmlns="http://www.w3.org/2000/svg" xmlns:xlink="http://www.w3.org/1999/xlink"><clipPath id="a"><path d="m0 .149231h198v198h-198z"></path></clipPath><g clip-path="url(#a)"><path d="m99 198.149h99v-98.9998h-99z" fill="#091408"></path><path d="m117.225 172.118c.834 0 1.816.096 2.952.295l.569.097-.148 1.464c-1.513-.17-2.583-.259-3.218-.259l.007-.014c-1.372 0-2.058.48-2.058 1.448 0 .495.162.851.487 1.065.325.215 1.041.473 2.155.783 1.107.311 1.889.681 2.347 1.11.457.429.679 1.101.679 2.025 0 1.168-.332 2.048-.997 2.624-.664.577-1.572.873-2.723.873-.923 0-1.934-.111-3.056-.325l-.583-.111.177-1.45c1.461.193 2.576.296 3.344.296 1.343 0 2.014-.598 2.014-1.789 0-.465-.154-.813-.457-1.035-.302-.222-.982-.465-2.045-.731-1.062-.266-1.852-.629-2.369-1.102-.516-.466-.782-1.205-.782-2.211 0-1.005.325-1.766.981-2.284.657-.517 1.565-.769 2.724-.769zm26.859 3.032c.694 0 1.544.088 2.547.259l.502.095-.029 1.479-.008.008c-1.277-.17-2.2-.259-2.775-.259-.576 0-.974.066-1.196.207-.221.14-.331.347-.332.642 0 .296.126.496.37.621.243.119.819.259 1.719.415.9.155 1.542.406 1.926.739.376.34.568.931.568 1.789 0 .857-.273 1.486-.819 1.886-.546.399-1.343.598-2.398.598-.657 0-1.491-.088-2.502-.273l-.502-.081.066-1.479c1.299.178 2.237.259 2.813.259.575 0 .981-.074 1.224-.215.244-.14.369-.377.369-.702s-.118-.547-.346-.673c-.236-.126-.79-.258-1.676-.406s-1.528-.378-1.941-.695c-.414-.311-.62-.888-.62-1.723s.28-1.456.856-1.87c.568-.414 1.299-.621 2.184-.621zm-11.832 8.295h-1.77v-8.133h1.77zm-7.993-4.866 1.004-.096 1.919-3.171h1.979l-2.34 3.806 2.465 4.326h-2l-1.979-3.431-1.055.111v3.32h-1.764v-11.519h1.771zm11.722 4.865h-1.772v-11.519h1.772zm3.77 0h-1.771v-11.519h1.771zm-7.499-9.515h-1.77v-1.87h1.77zm-1.482-18.29c.48 0 .945.052 1.41.163l.243.052 2.517-.067v1.434l-1.351-.081c.296.377.436.828.436 1.331 0 1.064-.266 1.797-.805 2.203s-1.372.613-2.509.613c-.28 0-.516-.022-.715-.066-.155.37-.23.65-.23.857s.104.341.303.414c.199.074.686.119 1.454.133 1.291.008 2.169.185 2.649.518.48.34.717.969.717 1.9l-.004.158c-.078 1.671-1.361 2.503-3.842 2.503-1.232 0-2.148-.17-2.746-.503-.597-.34-.892-.946-.892-1.84 0-.399.095-.747.295-1.035.192-.289.509-.599.944-.931-.354-.237-.538-.636-.538-1.191 0-.214.148-.569.435-1.057l.148-.244c-.782-.466-1.166-1.279-1.166-2.44 0-.976.295-1.692.878-2.143s1.373-.681 2.369-.681zm-.981 8.406c-.237.192-.406.377-.502.547s-.148.37-.148.613l.007.13c.034.307.186.535.45.677.303.163.827.243 1.558.243 1.306 0 1.963-.376 1.964-1.123 0-.421-.119-.688-.348-.806-.236-.111-.694-.178-1.387-.185zm19.159-8.413c.989 0 1.705.214 2.14.643.436.429.657 1.109.657 2.041l.007-.015v3.711c.008.236.074.414.185.524.111.111.288.186.524.223l-.051 1.353c-.93 0-1.654-.2-2.163-.599-.864.399-1.735.599-2.613.599-1.616 0-2.421-.866-2.421-2.588 0-.821.221-1.42.657-1.789.435-.37 1.114-.591 2.022-.665l2.097-.178v-.584c0-.436-.097-.739-.282-.909-.184-.17-.465-.259-.833-.259-.694 0-1.558.044-2.598.133l-.517.03-.066-1.25c1.181-.281 2.266-.421 3.255-.421zm-6.923.162h2.244v1.516h-2.251v3.578c0 .665.052 1.102.147 1.316.097.214.347.326.746.326l1.329-.052.081 1.412c-.723.14-1.277.214-1.654.214-.922 0-1.55-.215-1.889-.636-.34-.421-.51-1.22-.51-2.388v-3.77h-1.04v-1.516h1.04v-2.358h1.757zm-24.055-3.009c1.712 0 2.879.436 3.506 1.301s.944 2.226.944 4.081c0 .947-.059 1.746-.184 2.404-.126.657-.347 1.249-.656 1.781-.62 1.05-1.817 1.575-3.603 1.575h-3.853v-11.142zm7.956 11.142h-1.771v-8.133h1.771zm12.017 0h-1.772v-8.133h1.772zm17.664 0h-1.772v-11.518h1.772zm-7.493-3.608c-.746.066-1.122.473-1.122 1.219 0 .747.332 1.124.989 1.124.539 0 1.114-.088 1.72-.258l.295-.096v-2.166zm-32.189 2.018h2.045c1.07 0 1.787-.399 2.141-1.19.169-.399.287-.828.346-1.286.06-.459.089-1.021.089-1.694l.007.008c0-1.345-.17-2.314-.502-2.913s-1.026-.894-2.081-.895h-2.045zm14.838-5.315c-.996 0-1.491.481-1.491 1.449 0 .495.118.865.354 1.094.237.236.62.347 1.152.347.531 0 .915-.118 1.143-.347.229-.229.347-.599.347-1.094s-.117-.865-.353-1.102c-.237-.236-.621-.347-1.152-.347zm-4.837-2.61h-1.771v-1.871h1.771zm12.017 0h-1.772v-1.871h1.772zm11.027-18.291c.48 0 .945.053 1.41.163l.244.052 2.517-.066v1.433l-1.351-.081c.296.377.436.829.436 1.331 0 1.065-.266 1.797-.805 2.204-.538.406-1.373.613-2.509.613-.281 0-.517-.022-.716-.067-.155.37-.229.651-.229.858s.103.34.302.414.687.118 1.454.133c1.292.007 2.171.185 2.651.517.479.34.715.969.715 1.901l-.004.157c-.077 1.672-1.36 2.504-3.841 2.504-1.233 0-2.149-.17-2.746-.503-.598-.34-.893-.947-.893-1.841 0-.399.096-.746.295-1.034.192-.288.51-.599.945-.932-.354-.236-.539-.636-.539-1.19 0-.215.148-.57.436-1.058l.147-.244c-.782-.466-1.166-1.279-1.166-2.439 0-.976.295-1.693.878-2.144s1.373-.681 2.369-.681zm-.981 8.407c-.236.192-.406.377-.502.547-.096.169-.148.369-.148.613l.008.13c.034.307.186.534.45.676.303.163.827.244 1.557.244 1.306 0 1.964-.377 1.964-1.123 0-.422-.118-.688-.347-.806-.236-.111-.694-.178-1.388-.186zm-30.129-11.445c.967 0 2.023.133 3.181.407l-.066 1.463c-.974-.17-1.949-.258-2.923-.258s-1.631.289-1.978.873-.517 1.671-.517 3.267c0 1.597.17 2.691.502 3.268.332.584.989.872 1.963.872s1.964-.082 2.953-.244l.052 1.494c-1.115.236-2.171.354-3.167.354v.007c-1.624 0-2.724-.45-3.307-1.352s-.871-2.381-.871-4.444c0-2.062.296-3.526.879-4.398s1.683-1.309 3.299-1.309zm7.897 3.016c1.299 0 2.229.355 2.783 1.058.56.702.834 1.759.834 3.171-.001 1.412-.273 2.47-.812 3.187s-1.477 1.071-2.813 1.071c-1.335 0-2.265-.354-2.811-1.071-.539-.717-.813-1.782-.813-3.187 0-1.404.281-2.469.834-3.171h.016c.561-.703 1.483-1.058 2.782-1.058zm15.294 0c2.347 0 3.409 1.243 3.409 3.727l-.11 1.271h-5.034c.007.673.155 1.168.435 1.479.281.317.805.473 1.573.473.767 0 1.557-.03 2.369-.097l.008-.006.457-.052.03 1.315c-1.233.252-2.325.377-3.277.377-1.203 0-2.067-.332-2.591-.99s-.79-1.723-.79-3.172c0-2.883 1.174-4.325 3.521-4.325zm16.416 0c2.347 0 3.41 1.243 3.41 3.727l-.111 1.271h-5.033c.007.673.155 1.168.435 1.479.281.317.804.473 1.572.473.767 0 1.557-.03 2.369-.097l.008-.006.458-.052.029 1.315c-1.233.252-2.325.377-3.277.377-1.203 0-2.067-.332-2.591-.99s-.789-1.723-.789-3.172c0-2.883 1.173-4.325 3.52-4.325zm17.28 0c1.299 0 2.229.355 2.783 1.058.561.702.834 1.759.834 3.171s-.274 2.47-.813 3.187-1.476 1.071-2.811 1.071c-1.336 0-2.267-.354-2.813-1.071-.539-.717-.811-1.782-.811-3.187 0-1.404.28-2.469.834-3.171h.014c.561-.703 1.484-1.058 2.783-1.058zm9.393 1.774c-.93.185-1.727.422-2.384.718l-.354.148v5.677h-1.772l-.006-.007v-8.132h1.755v.975c.923-.599 1.839-.983 2.761-1.153zm-51.703 6.536h-1.772v-11.518h1.772zm3.765 0h-1.772v-11.518h1.772zm34.211-11.526-.015 1.449c-.531-.022-.975-.029-1.321-.029-.347 0-.598.103-.739.317-.14.215-.214.6-.214 1.162v.502h2.141v1.516h-2.141v6.609h-1.756v-6.617h-.946v-1.515h.946v-.518c0-1.16.169-1.959.502-2.388.339-.436.93-.65 1.786-.65zm-44.656 4.71c-.694 0-1.173.207-1.439.621s-.399 1.109-.399 2.1c0 .99.126 1.7.376 2.129.251.436.739.65 1.462.65s1.21-.214 1.461-.65.377-1.146.377-2.129-.133-1.686-.398-2.1c-.266-.414-.746-.621-1.44-.621zm48.997 0c-.693 0-1.173.207-1.439.621s-.399 1.109-.399 2.1c.001.99.126 1.7.376 2.129.251.436.739.65 1.462.65s1.21-.214 1.461-.65.377-1.146.377-2.129-.133-1.686-.398-2.1c-.266-.414-.746-.621-1.44-.621zm-25.791-.089c-.996 0-1.491.481-1.491 1.449 0 .496.119.865.355 1.094.236.237.62.348 1.151.348s.915-.119 1.144-.348c.228-.229.347-.598.347-1.094 0-.495-.118-.865-.354-1.101-.236-.237-.62-.348-1.152-.348zm-7.912.059c-.605 0-1.048.17-1.321.503-.273.34-.421.887-.429 1.656h3.425c-.001-.794-.126-1.353-.384-1.678-.251-.318-.686-.481-1.291-.481zm16.416 0c-.605 0-1.048.17-1.321.503-.273.34-.421.887-.429 1.656h3.425c-.001-.794-.126-1.353-.384-1.678-.251-.318-.686-.481-1.291-.481zm-29.422-20.67c.989 0 1.706.214 2.141.642.435.429.657 1.11.657 2.041l.007-.014v3.711c.007.236.074.413.185.524.11.111.288.186.524.223l-.052 1.352c-.93 0-1.654-.199-2.163-.598-.863.399-1.734.598-2.612.598-1.617 0-2.421-.865-2.421-2.588 0-.82.221-1.419.656-1.789.436-.369 1.115-.591 2.023-.665l2.096-.177v-.584c0-.436-.096-.739-.28-.91-.184-.169-.465-.258-.834-.258-.694 0-1.558.044-2.598.133l-.517.03-.067-1.25c1.181-.281 2.266-.421 3.255-.421zm34.144 0c.989 0 1.705.214 2.141.642.435.429.656 1.11.656 2.041l.008-.014v3.711c.007.236.074.413.184.524.111.111.288.186.525.223l-.052 1.352c-.93 0-1.654-.199-2.163-.598-.864.399-1.734.598-2.613.598-1.616 0-2.42-.865-2.42-2.588 0-.82.22-1.419.656-1.789.435-.369 1.114-.591 2.022-.665l2.097-.177v-.584c0-.436-.097-.739-.281-.91-.185-.169-.465-.258-.834-.258-.694 0-1.557.044-2.598.133l-.517.03-.066-1.25c1.181-.281 2.266-.421 3.255-.421zm-27.581.162h2.244v1.516h-2.252v3.578c0 .665.053 1.102.149 1.316s.346.325.745.325l1.328-.051.082 1.412c-.723.14-1.277.214-1.654.214-.922 0-1.55-.215-1.889-.636-.34-.422-.51-1.22-.51-2.388v-3.77h-1.041v-1.516h1.041v-2.358h1.757zm10.835-.178c1.299 0 2.229.356 2.782 1.058.561.702.834 1.76.834 3.172s-.273 2.469-.811 3.186c-.539.717-1.477 1.072-2.813 1.072s-2.266-.355-2.812-1.072c-.539-.717-.812-1.782-.812-3.186 0-1.405.28-2.47.834-3.172h.015c.561-.702 1.484-1.058 2.783-1.058zm-24.786 6.713h.243v-9.544h1.802v11.142h-3.086l-3.461-9.568h-.23v9.568h-1.801v-11.142h3.152zm33.656-6.713c1.085 0 1.823.311 2.214.917.398.614.591 1.627.591 3.032v4.362h-1.757v-4.311c0-.879-.096-1.5-.28-1.87-.192-.37-.577-.555-1.16-.555-.553.001-1.084.111-1.593.326l-.244.095v6.315h-1.771v-8.133h1.756v.503c.79-.458 1.535-.681 2.244-.681zm14.526 8.311h-1.771v-11.519h1.771zm-28.608-.001h-1.772v-8.132h1.772zm-13.02-3.608c-.745.067-1.122.474-1.122 1.22 0 .747.333 1.124.99 1.124.538 0 1.114-.089 1.719-.259l.295-.095v-2.166zm34.144 0c-.745.067-1.122.474-1.122 1.22 0 .747.332 1.124.989 1.124.539 0 1.115-.089 1.72-.259l.295-.095v-2.166zm-15.905-3.208c-.694 0-1.174.208-1.44.621-.265.415-.398 1.11-.398 2.1 0 .991.126 1.7.377 2.129.251.436.738.65 1.461.65s1.211-.214 1.462-.65c.25-.436.376-1.146.376-2.129s-.133-1.685-.399-2.1c-.266-.414-.746-.621-1.439-.621zm-5.219-2.699h-1.772v-1.87h1.772z" fill="#fff"></path><path d="m-.00000763 198h99.00000763v-99h-99.00000763z" fill="#ec6271"></path><path d="m49.5 187.869c21.3845 0 38.72-17.335 38.72-38.72 0-21.384-17.3355-38.72-38.72-38.72s-38.72 17.336-38.72 38.72c0 21.385 17.3355 38.72 38.72 38.72z" fill="#f5e134"></path><path d="m99 99.1492h99v-98.999977h-99z" fill="#fff"></path><path d="m198 19.9549-79.194 79.1943h-19.806v-19.8056l79.194-79.194369h19.806zm0 79.1943h-39.583l39.583-39.583zm-99-59.3974v-39.602569h39.603z" fill="#a1c854"></path><path d="m-.00000763 99.1492h99.00000763v-98.999977h-99.00000763z" fill="#091408"></path><path d="m28.835 62.0359c2.3765.0001 3.249.4089 4.4785 1.6368l-.0069.0136 1.0987 1.0918c1.463 1.453 1.7382 2.0872 1.7383 4.4952v14.2031c-.0001.6344-.5224 1.1533-1.1612 1.1533h-3.9834c-.6388 0-1.1543-.5189-1.1543-1.1533v-14.2168c0-.2727-.0412-.3618-.2197-.5459l-.6113-.6338c-.1786-.1842-.2613-.2256-.5703-.2256h-3.627c-.6867 0-.8859.0957-1.2842.5049l-2.3017 2.415c-.405.4091-.501.614-.501 1.2276v5.3965c0 .2728.0411.3617.2197.5459l.6113.6337c.1786.1842.2613.2325.5704.2325h4.6298c.563.0819.9959.5523.9961 1.1318v3.5273c0 .6344-.5224 1.1533-1.1611 1.1534h-4.7607c-2.3764-.0001-3.2491-.4167-4.4786-1.6377l-1.0986-1.0918c-1.4629-1.4529-1.7383-2.0941-1.7383-4.502v-5.9346c0-2.408.2752-3.043 1.7383-4.496l3.3379-3.2881c1.2363-1.2279 2.1091-1.6367 4.4785-1.6368zm48.3437 0c2.3765.0001 3.249.4089 4.4785 1.6368l1.0987 1.0918-.0137.0136c1.463 1.453 1.7383 2.0872 1.7383 4.4952v14.2031c0 .6344-.5224 1.1533-1.1612 1.1533h-3.9843c-.6386-.0002-1.1533-.5191-1.1534-1.1533v-14.2168c0-.2727-.0411-.3618-.2197-.5459l-.6113-.6338c-.1786-.1842-.2613-.2256-.5703-.2256h-3.627c-.6867 0-.8859.0958-1.2842.5049l-2.3017 2.415c-.3982.4091-.4941.614-.4942 1.2276v5.3965c.0001.2728.0412.3617.2198.5459l.6113.6337c.1786.1842.2612.2325.5703.2325h4.6299c.5629.082.9958.5523.9961 1.1318v3.5273c0 .6344-.5224 1.1533-1.1611 1.1534h-4.7608c-2.3763-.0001-3.249-.4167-4.4785-1.6377l-1.0986-1.0918c-1.463-1.4529-1.7383-2.094-1.7383-4.502v-5.9346c0-2.408.2752-3.043 1.7383-4.496l3.3379-3.2881c1.2363-1.2279 2.109-1.6367 4.4785-1.6368zm-17.8252-9.0869c.6387 0 1.1609.5181 1.1611 1.1524v29.375c0 .6344-.5223 1.1523-1.1611 1.1523h-3.9844c-.6386-.0002-1.1532-.5181-1.1533-1.1523v-14.2168c0-.2728-.0412-.3618-.2197-.5459l-.6113-.6338c-.1786-.1842-.2613-.2256-.5703-.2256h-3.627c-.6868 0-.8859.0957-1.2842.5049l-2.3017 2.415c-.405.4091-.501.614-.501 1.2276v5.3965c0 .2727.0411.3617.2197.5459l.6113.6337c.1786.1842.2613.2325.5704.2325h4.6298c.5629.082.9949.5523.9952 1.1318v3.5273c-.0001.6344-.5215 1.1523-1.1602 1.1524h-4.7607c-2.3764-.0001-3.2491-.4157-4.4786-1.6367l-1.0986-1.0918c-1.4629-1.453-1.7383-2.0941-1.7383-4.502v-5.9346c0-2.408.2752-3.043 1.7383-4.496l3.3379-3.2881c1.2363-1.2279 2.109-1.6367 4.4785-1.6368h4.7608c.3708.0001.7007.0128 1.0097.0333v-7.9678c.0002-.6341.5217-1.1521 1.1602-1.1524z" fill="#fff"></path></g></svg>