<?xml version="1.0" encoding="UTF-8"?>
<!-- Generator: Adobe Illustrator 27.6.1, SVG Export Plug-In . SVG Version: 6.00 Build 0)  -->
<svg version="1.1" id="Layer_1" xmlns="http://www.w3.org/2000/svg" xmlns:xlink="http://www.w3.org/1999/xlink" x="0px" y="0px" viewBox="0 0 555 196" style="enable-background:new 0 0 555 196;" xml:space="preserve">
<style type="text/css">
	.st0{fill:#F3F3F3;}
	.st1{fill:#EE0000;}
	.st2{fill:#E0E0E0;}
	.st3{fill:#FFFFFF;}
	.st4{fill:#79C4C6;}
	.st5{fill:#316DC1;}
	.st6{fill:#4D4D4D;}
	.st7{fill:#ED0000;}
	.st8{fill:#DFDFDF;}
	.st9{fill:none;stroke:#FF0000;stroke-width:1.25;stroke-linecap:round;stroke-linejoin:round;stroke-miterlimit:10;}
	.st10{fill:none;}
	.st11{fill:#689B7A;}
	.st12{fill:#ED1C24;}
	.st13{fill:#383838;}
	.st14{clip-path:url(#SVGID_00000104702391841435530920000003679946817823808422_);}
	.st15{clip-path:url(#SVGID_00000111188235574655813340000004895295263309283496_);}
	.st16{fill:#151515;}
	.st17{fill:#F2F2F2;}
	.st18{fill:none;stroke:#1E67CD;stroke-width:0.75;stroke-miterlimit:10;}
	.st19{fill:#1E67CD;}
	.st20{fill:#707070;}
	.st21{fill:none;stroke:#FFFFFF;stroke-width:1.25;stroke-linecap:round;stroke-linejoin:round;stroke-miterlimit:10;}
	.st22{fill:none;stroke:#FFFFFF;stroke-width:2;stroke-linecap:round;stroke-linejoin:round;stroke-miterlimit:10;}
	.st23{fill:none;stroke:#FFFFFF;stroke-width:3;stroke-linecap:round;stroke-linejoin:round;stroke-miterlimit:10;}
	.st24{fill:#151515;stroke:#FFFFFF;stroke-width:2;stroke-linecap:round;stroke-linejoin:round;stroke-miterlimit:10;}
	.st25{fill:none;stroke:#000000;stroke-width:2;stroke-linecap:round;stroke-linejoin:round;stroke-miterlimit:10;}
	.st26{stroke:#000000;stroke-width:2;stroke-linecap:round;stroke-linejoin:round;stroke-miterlimit:10;}
	.st27{fill:none;stroke:#000000;stroke-width:3;stroke-linecap:round;stroke-linejoin:round;stroke-miterlimit:10;}
	.st28{fill:none;stroke:#000000;stroke-width:2;stroke-miterlimit:10;}
	.st29{fill:none;stroke:#000000;stroke-width:2;stroke-linecap:round;stroke-miterlimit:10;}
	.st30{fill:#FFFFFF;stroke:#000000;stroke-width:2;stroke-linecap:round;stroke-linejoin:round;stroke-miterlimit:10;}
	.st31{stroke:#000000;stroke-width:3;stroke-linecap:round;stroke-linejoin:round;stroke-miterlimit:10;}
	.st32{fill:none;stroke:#FFFFFF;stroke-width:4;stroke-linecap:round;stroke-linejoin:round;stroke-miterlimit:10;}
	.st33{fill:none;stroke:#000000;stroke-width:3;stroke-linecap:round;stroke-linejoin:round;}
	.st34{fill:none;stroke:#000000;stroke-width:3;stroke-linecap:round;stroke-linejoin:round;stroke-dasharray:0,5.25;}
	.st35{fill:#F2F2F2;stroke:#000000;stroke-width:2;stroke-linecap:round;stroke-linejoin:round;stroke-miterlimit:10;}
	.st36{fill:#1F63B5;}
	.st37{fill:none;stroke:#A7C0E4;stroke-width:5.000000e-02;stroke-miterlimit:10;}
	.st38{opacity:0.25;}
	.st39{fill:#0066CC;}
	.st40{fill:none;stroke:#000000;stroke-width:0.5;stroke-miterlimit:10;}
	.st41{clip-path:url(#SVGID_00000176043530842277505390000015088057811435451039_);}
	.st42{fill:none;stroke:#1E67CD;stroke-width:0.5;stroke-linecap:round;stroke-linejoin:round;}
	.st43{fill:none;stroke:#1E67CD;stroke-width:0.5;stroke-linecap:round;stroke-linejoin:round;stroke-dasharray:0,1.002;}
	.st44{fill:none;stroke:#1E67CD;stroke-width:0.5;stroke-linecap:round;stroke-miterlimit:10;}
	.st45{fill:none;stroke:#1E67CD;stroke-width:0.5;stroke-linecap:round;stroke-miterlimit:10;stroke-dasharray:0,1.002;}
	.st46{fill:none;stroke:#1E67CD;stroke-miterlimit:10;}
	.st47{fill:#FFFFFF;stroke:#FFFFFF;stroke-linecap:round;stroke-linejoin:round;stroke-miterlimit:10;}
	.st48{fill:#8F0000;}
	.st49{clip-path:url(#SVGID_00000173129808113614725050000013534442050297290627_);}
	.st50{clip-path:url(#SVGID_00000040534375433732076240000008065344961078243222_);}
	.st51{fill:#FFFFFF;stroke:#FFFFFF;stroke-width:5.000000e-02;stroke-miterlimit:10;}
	.st52{fill:none;stroke:#FFFFFF;stroke-width:0.2;stroke-linecap:round;stroke-linejoin:round;stroke-miterlimit:10;}
	.st53{opacity:0.5;fill:#1E67CD;}
	.st54{fill:#151515;stroke:#1E67CD;stroke-miterlimit:10;}
	.st55{fill:#151515;stroke:#316DC1;stroke-width:0.25;stroke-miterlimit:10;}
	.st56{fill:none;stroke:#FFFFFF;stroke-width:0.45;stroke-linecap:round;stroke-linejoin:round;stroke-miterlimit:10;}
	.st57{fill:#F7823C;}
	.st58{fill:#27579A;}
	.st59{fill:#C65E2B;}
	.st60{fill:#4E745C;}
	.st61{fill:#F2F2F2;stroke:#D2D2D2;stroke-miterlimit:10;}
	.st62{fill:#241A49;}
	.st63{fill:#E3EAF5;}
</style>
<rect class="st17" width="555" height="196"/>
<g>
	<path class="st1" d="M190.1,103.4c6.1,0,15-1.3,15-8.5c0-0.6,0-1.1-0.2-1.7l-3.6-15.8c-0.8-3.5-1.6-5.1-7.7-8.1   c-4.7-2.4-15.1-6.4-18.1-6.4c-2.8,0-3.7,3.7-7.1,3.7c-3.3,0-5.7-2.7-8.7-2.7c-2.9,0-4.8,2-6.3,6.1c0,0-4.1,11.6-4.6,13.3   c-0.1,0.3-0.1,0.6-0.1,0.9C148.6,88.6,166.3,103.3,190.1,103.4 M206,97.8c0.8,4,0.8,4.4,0.8,4.9c0,6.8-7.7,10.6-17.8,10.6   c-22.8,0-42.8-13.4-42.8-22.2c0-1.2,0.2-2.4,0.7-3.6c-8.2,0.4-18.8,1.9-18.8,11.3c0,15.4,36.4,34.3,65.3,34.3   c22.1,0,27.7-10,27.7-17.9C221,109.1,215.7,102,206,97.8"/>
	<path d="M206,97.8c0.8,4,0.8,4.4,0.8,4.9c0,6.8-7.7,10.6-17.8,10.6c-22.8,0-42.8-13.4-42.8-22.2c0-1.2,0.2-2.4,0.7-3.6l1.8-4.4   c-0.1,0.3-0.1,0.6-0.1,0.9c0,4.5,17.7,19.3,41.5,19.3c6.1,0,15-1.3,15-8.5c0-0.6,0-1.1-0.2-1.7L206,97.8z"/>
	<path d="M411,107.9c0,5.8,3.5,8.6,9.9,8.6c2,0,3.9-0.3,5.8-0.8V109c-1.2,0.4-2.5,0.6-3.8,0.6c-2.6,0-3.6-0.8-3.6-3.3V95.9h7.6V89   h-7.6v-8.8L411,82v7h-5.5v6.9h5.5V107.9z M385.1,108.1c0-1.8,1.8-2.7,4.5-2.7c1.7,0,3.3,0.2,4.9,0.6v3.5c-1.6,0.9-3.4,1.3-5.2,1.3   C386.7,110.8,385.1,109.8,385.1,108.1 M387.7,116.6c2.9,0,5.3-0.6,7.5-2.1v1.6h8.2V98.8c0-6.6-4.5-10.3-11.9-10.3   c-4.2,0-8.3,1-12.7,3l3,6.1c3.2-1.3,5.9-2.2,8.2-2.2c3.4,0,5.2,1.3,5.2,4.1v1.3c-2-0.5-4.1-0.8-6.2-0.8c-7,0-11.2,2.9-11.2,8.2   C377.8,113,381.6,116.7,387.7,116.6 M342.5,116.2h8.8v-14.1h14.8v14.1h8.9v-36h-8.8V94h-14.8V80.2h-8.8L342.5,116.2z M308.9,102.6   c0-3.9,3.1-6.9,7.1-6.9c2.1,0,4.2,0.7,5.7,2.1v9.5c-1.5,1.5-3.6,2.2-5.7,2.2C312,109.5,308.9,106.5,308.9,102.6 M321.9,116.2h8.2   V78.4l-8.3,1.8v10.2c-2.1-1.2-4.5-1.8-6.9-1.8c-7.9,0-14.1,6.1-14.1,13.9c-0.1,7.6,6,13.9,13.6,14c0.1,0,0.2,0,0.2,0   c2.6,0,5.2-0.8,7.3-2.4L321.9,116.2z M284.1,95.3c2.6,0,4.8,1.7,5.7,4.3h-11.3C279.3,96.9,281.4,95.3,284.1,95.3 M270.1,102.6   c0,7.9,6.5,14.1,14.8,14.1c4.6,0,7.9-1.2,11.4-4.1l-5.5-4.9c-1.3,1.3-3.2,2.1-5.4,2.1c-2.9,0.1-5.6-1.6-6.7-4.3H298v-2.1   c0-8.6-5.8-14.8-13.7-14.8c-7.7-0.1-14,6-14.2,13.7C270.1,102.4,270.1,102.5,270.1,102.6 M255.8,87.8c2.9,0,4.6,1.8,4.6,4.1   s-1.6,4.1-4.6,4.1h-8.7v-8.1H255.8z M238.2,116.2h8.8v-13.1h6.7l6.8,13.1h9.9l-7.9-14.4c4.1-1.7,6.8-5.7,6.8-10.1   c0-6.5-5.1-11.5-12.7-11.5h-18.4V116.2z"/>
</g>
</svg>