<svg xmlns="http://www.w3.org/2000/svg" xmlns:xlink="http://www.w3.org/1999/xlink" id="Layer_1" x="0" y="0" version="1.1" viewBox="0 0 555 196" style="enable-background:new 0 0 555 196" xml:space="preserve"><style type="text/css">.st1{fill:#e00}.st17{fill:#f2f2f2}</style><rect width="555" height="196" class="st17"/><g><path d="M190.1,103.4c6.1,0,15-1.3,15-8.5c0-0.6,0-1.1-0.2-1.7l-3.6-15.8c-0.8-3.5-1.6-5.1-7.7-8.1 c-4.7-2.4-15.1-6.4-18.1-6.4c-2.8,0-3.7,3.7-7.1,3.7c-3.3,0-5.7-2.7-8.7-2.7c-2.9,0-4.8,2-6.3,6.1c0,0-4.1,11.6-4.6,13.3 c-0.1,0.3-0.1,0.6-0.1,0.9C148.6,88.6,166.3,103.3,190.1,103.4 M206,97.8c0.8,4,0.8,4.4,0.8,4.9c0,6.8-7.7,10.6-17.8,10.6 c-22.8,0-42.8-13.4-42.8-22.2c0-1.2,0.2-2.4,0.7-3.6c-8.2,0.4-18.8,1.9-18.8,11.3c0,15.4,36.4,34.3,65.3,34.3 c22.1,0,27.7-10,27.7-17.9C221,109.1,215.7,102,206,97.8" class="st1"/><path d="M206,97.8c0.8,4,0.8,4.4,0.8,4.9c0,6.8-7.7,10.6-17.8,10.6c-22.8,0-42.8-13.4-42.8-22.2c0-1.2,0.2-2.4,0.7-3.6l1.8-4.4 c-0.1,0.3-0.1,0.6-0.1,0.9c0,4.5,17.7,19.3,41.5,19.3c6.1,0,15-1.3,15-8.5c0-0.6,0-1.1-0.2-1.7L206,97.8z"/><path d="M411,107.9c0,5.8,3.5,8.6,9.9,8.6c2,0,3.9-0.3,5.8-0.8V109c-1.2,0.4-2.5,0.6-3.8,0.6c-2.6,0-3.6-0.8-3.6-3.3V95.9h7.6V89 h-7.6v-8.8L411,82v7h-5.5v6.9h5.5V107.9z M385.1,108.1c0-1.8,1.8-2.7,4.5-2.7c1.7,0,3.3,0.2,4.9,0.6v3.5c-1.6,0.9-3.4,1.3-5.2,1.3 C386.7,110.8,385.1,109.8,385.1,108.1 M387.7,116.6c2.9,0,5.3-0.6,7.5-2.1v1.6h8.2V98.8c0-6.6-4.5-10.3-11.9-10.3 c-4.2,0-8.3,1-12.7,3l3,6.1c3.2-1.3,5.9-2.2,8.2-2.2c3.4,0,5.2,1.3,5.2,4.1v1.3c-2-0.5-4.1-0.8-6.2-0.8c-7,0-11.2,2.9-11.2,8.2 C377.8,113,381.6,116.7,387.7,116.6 M342.5,116.2h8.8v-14.1h14.8v14.1h8.9v-36h-8.8V94h-14.8V80.2h-8.8L342.5,116.2z M308.9,102.6 c0-3.9,3.1-6.9,7.1-6.9c2.1,0,4.2,0.7,5.7,2.1v9.5c-1.5,1.5-3.6,2.2-5.7,2.2C312,109.5,308.9,106.5,308.9,102.6 M321.9,116.2h8.2 V78.4l-8.3,1.8v10.2c-2.1-1.2-4.5-1.8-6.9-1.8c-7.9,0-14.1,6.1-14.1,13.9c-0.1,7.6,6,13.9,13.6,14c0.1,0,0.2,0,0.2,0 c2.6,0,5.2-0.8,7.3-2.4L321.9,116.2z M284.1,95.3c2.6,0,4.8,1.7,5.7,4.3h-11.3C279.3,96.9,281.4,95.3,284.1,95.3 M270.1,102.6 c0,7.9,6.5,14.1,14.8,14.1c4.6,0,7.9-1.2,11.4-4.1l-5.5-4.9c-1.3,1.3-3.2,2.1-5.4,2.1c-2.9,0.1-5.6-1.6-6.7-4.3H298v-2.1 c0-8.6-5.8-14.8-13.7-14.8c-7.7-0.1-14,6-14.2,13.7C270.1,102.4,270.1,102.5,270.1,102.6 M255.8,87.8c2.9,0,4.6,1.8,4.6,4.1 s-1.6,4.1-4.6,4.1h-8.7v-8.1H255.8z M238.2,116.2h8.8v-13.1h6.7l6.8,13.1h9.9l-7.9-14.4c4.1-1.7,6.8-5.7,6.8-10.1 c0-6.5-5.1-11.5-12.7-11.5h-18.4V116.2z"/></g></svg>