<svg xmlns="http://www.w3.org/2000/svg" xmlns:xlink="http://www.w3.org/1999/xlink" id="Layer_2_00000043430703417315583540000001993125785900877732_" x="0" y="0" version="1.1" viewBox="0 0 1280 464.9" style="enable-background:new 0 0 1280 464.9" xml:space="preserve"><style type="text/css">.st0{fill:#fff}.st1{fill:#e33661}</style><g id="Layer_1-2"><path d="M713.3,399.6H748v17.7h-6.4v35c0,7.4-5.2,12.5-12.7,12.5h-32.5c-7.5,0-12.6-5.2-12.6-12.5v-81.8 c0-7.5,5-12.7,12.6-12.7h45.4v18.8h-35.5c-0.6,0-1.3,0.8-1.3,1.7v66.1c0,0.9,0.6,1.6,1.3,1.6h14.6c0.9,0,1.4-0.6,1.4-1.6v-27.2h-9 L713.3,399.6L713.3,399.6L713.3,399.6z" class="st0"/><polygon points="798.6 358.5 819.6 358.5 819.6 446.1 844.9 446.1 844.9 464.5 798.6 464.5 798.6 358.5" class="st0"/><path d="M929.5,377.3c0-0.9-0.8-1.7-1.3-1.7h-15.2c-0.8,0-1.1,1.1-1.1,1.7v68.1c0,0.6,0.5,1.4,1.1,1.4h15.2 c0.5,0,1.3-0.6,1.3-1.4V377.3L929.5,377.3z M939.3,357.9c6.8,0,11.5,4.7,11.5,11.5v84.1c0,6.8-4.7,11.5-11.5,11.5h-37 c-6.9,0-11.5-4.7-11.5-11.5v-84.1c0-6.8,4.6-11.5,11.5-11.5L939.3,357.9L939.3,357.9z" class="st0"/><path d="M1045.3,421.5c0-1.3-0.8-2.2-2.2-2.2h-15.8v27.9h15.8c1.4,0,2.2-0.9,2.2-2V421.5L1045.3,421.5L1045.3,421.5z M1045.3,378.4c0-1.4-0.8-2.4-2.2-2.4h-15.8v26.7h15.8c1.4,0,2.2-0.9,2.2-2.4V378.4L1045.3,378.4L1045.3,378.4z M1006,464.5v-106 h48.2c7.1,0,11.9,4.9,11.9,11.6v27.5c0,7.9-4.7,12.6-12.1,14c7.4,1.6,12.2,6.4,12.2,13.5v27.6c0,7.1-4.9,11.8-11.9,11.8H1006z" class="st0"/><path d="M1157.4,417.7v-38.9c0-1.6-1.2-2.5-2.8-2.5h-11.3c-1.6,0-2.7,1.1-2.7,2.5v38.9H1157.4z M1178.4,464.5h-21 v-29.2h-16.8v29.2h-21V370c0-6.8,4.6-11.5,11.3-11.5h36.1c6.8,0,11.5,4.7,11.5,11.5L1178.4,464.5L1178.4,464.5L1178.4,464.5z" class="st0"/><polygon points="1233.7 358.5 1254.7 358.5 1254.7 446.1 1280 446.1 1280 464.5 1233.7 464.5 1233.7 358.5" class="st0"/><path d="M120.8,0C66.4,0,0,42.7,0,113.3v53.2l69.1,12.2v-56.3c0.3-9.7,5.2-53.3,72.2-53.3h172.4L325.9,0H120.8z" class="st1"/><path d="M111.3,273.3h79.5c2.2,0,3.4-1.3,3.4-2.8v-30.8c0-1.6-1.3-2.8-3.4-2.8h-54.6c-14.8,0-24.8-10.1-24.8-24.8V132 c0-14.8,10.1-24.8,24.8-24.8h109.6v45.5h-76.6c-1.9,0-3.1,1.6-3.1,3.4v31.1c0,1.3,1.3,2.8,3.1,2.8h54.6c14.8,0,24.8,10.1,24.8,24.8 v79.5c0,14.8-10.1,24.8-24.8,24.8H111.3V273.3L111.3,273.3L111.3,273.3z" class="st0"/><path d="M402.5,219c1.6,0,2.8-1.6,2.8-2.8v-60.3c0-1.6-1.2-3.1-2.8-3.1H361V219H402.5z M436.1,107.2 c12.9,0,23.9,10.4,23.9,23.9v109c0,12.6-11,23.9-23.9,23.9H361v55.3h-54.6v-212H436.1L436.1,107.2z" class="st0"/><path d="M615,220.6v-63.8c0-3.8-3.1-6.3-7.5-6.3h-33.9c-3.8,0-6.6,2.8-6.6,6.3v63.8H615z M669.7,319.2H615v-52.8h-48 v52.8h-54.7V132c0-14.8,10-24.8,24.8-24.8h107.7c14.8,0,24.8,10.1,24.8,24.8V319.2L669.7,319.2L669.7,319.2z" class="st0"/><path d="M833.9,155.9c0-1.6-1.6-3.1-2.8-3.1h-45.2v56.5h45.2c1.3,0,2.8-1.6,2.8-2.8V155.9L833.9,155.9z M864.4,107.2 c12.9,0,23.9,10.4,23.9,23.9v97c0,12.9-11,23.9-23.9,23.9h-1.6l26.1,67.2h-53.4L809.1,252h-23.2v67.2h-54.7v-212L864.4,107.2 L864.4,107.2z" class="st0"/><polygon points="1078.6 107.2 1078.6 153.1 1030.5 153.1 1030.5 319.2 975.9 319.2 975.9 153.1 927.8 153.1 927.8 107.2 1078.6 107.2" class="st0"/><path d="M1223,220.6v-63.8c0-3.8-3.1-6.3-7.5-6.3h-33.9c-3.8,0-6.6,2.8-6.6,6.3v63.8H1223z M1277.7,319.2H1223v-52.8 H1175v52.8h-54.7V132c0-14.8,10.1-24.8,24.8-24.8h107.7c14.8,0,24.8,10.1,24.8,24.8L1277.7,319.2L1277.7,319.2L1277.7,319.2z" class="st0"/></g></svg>