<?xml version="1.0" encoding="UTF-8"?>
<svg id="Layer_2" xmlns="http://www.w3.org/2000/svg" viewBox="0 0 1280 464.93"><defs><style>.cls-1{fill:#e33661;}.cls-2{fill:#1d1d1b;}</style></defs><g id="Layer_1-2"><path class="cls-2" d="M713.33,399.63h34.69v17.74h-6.43v35.01c0,7.37-5.18,12.55-12.71,12.55h-32.49c-7.54,0-12.56-5.18-12.56-12.55v-81.79c0-7.53,5.02-12.71,12.56-12.71h45.36v18.84h-35.48c-.62,0-1.26,.78-1.26,1.73v66.09c0,.94,.63,1.57,1.26,1.57h14.6c.94,0,1.42-.63,1.42-1.57v-27.16h-8.95v-17.74h0Z"/><polygon class="cls-2" points="798.6 358.5 819.63 358.5 819.63 446.1 844.9 446.1 844.9 464.46 798.6 464.46 798.6 358.5 798.6 358.5"/><path class="cls-2" d="M929.54,377.34c0-.94-.79-1.73-1.26-1.73h-15.22c-.79,0-1.1,1.1-1.1,1.73v68.12c0,.63,.46,1.42,1.1,1.42h15.22c.47,0,1.26-.63,1.26-1.42v-68.12h0Zm9.73-19.47c6.75,0,11.46,4.71,11.46,11.46v84.14c0,6.75-4.71,11.46-11.46,11.46h-37.04c-6.91,0-11.46-4.71-11.46-11.46v-84.14c0-6.75,4.56-11.46,11.46-11.46h37.04Z"/><path class="cls-2" d="M1045.26,421.45c0-1.26-.79-2.2-2.2-2.2h-15.85v27.94h15.85c1.41,0,2.2-.94,2.2-2.04v-23.7h0Zm0-43.01c0-1.41-.79-2.36-2.2-2.36h-15.85v26.69h15.85c1.41,0,2.2-.94,2.2-2.36v-21.97h0Zm-39.24,86.02v-105.96h48.19c7.07,0,11.93,4.87,11.93,11.62v27.47c0,7.85-4.71,12.56-12.08,13.97,7.38,1.57,12.24,6.44,12.24,13.5v27.63c0,7.06-4.87,11.77-11.93,11.77h-48.35Z"/><path class="cls-2" d="M1157.37,417.68v-38.93c0-1.57-1.25-2.51-2.82-2.51h-11.3c-1.57,0-2.67,1.1-2.67,2.51v38.93h16.79Zm21.04,46.78h-21.04v-29.2h-16.79v29.2h-21.04v-94.5c0-6.75,4.56-11.46,11.3-11.46h36.11c6.75,0,11.46,4.71,11.46,11.46v94.5h0Z"/><polygon class="cls-2" points="1233.69 358.5 1254.72 358.5 1254.72 446.1 1280 446.1 1280 464.46 1233.69 464.46 1233.69 358.5 1233.69 358.5"/><path class="cls-1" d="M120.78,0C66.37,0,0,42.68,0,113.34v53.2l69.09,12.18v-56.33c.28-9.71,5.25-53.3,72.23-53.3h172.36L325.86,0H120.78Z"/><path class="cls-2" d="M111.33,273.34h79.46c2.19,0,3.45-1.26,3.45-2.83v-30.78c0-1.57-1.26-2.82-3.45-2.82h-54.65c-14.76,0-24.81-10.05-24.81-24.81v-80.08c0-14.76,10.05-24.81,24.81-24.81h109.61v45.54h-76.63c-1.88,0-3.14,1.57-3.14,3.45v31.09c0,1.26,1.26,2.83,3.14,2.83h54.64c14.77,0,24.81,10.05,24.81,24.81v79.46c0,14.76-10.05,24.81-24.81,24.81H111.33v-45.85h0Z"/><path class="cls-2" d="M402.45,219c1.57,0,2.82-1.57,2.82-2.82v-60.3c0-1.57-1.25-3.14-2.82-3.14h-41.46v66.26h41.46Zm33.6-111.8c12.88,0,23.87,10.36,23.87,23.87v108.98c0,12.56-10.99,23.87-23.87,23.87h-75.06v55.27h-54.65V107.2h129.71Z"/><path class="cls-2" d="M615.05,220.57v-63.75c0-3.77-3.14-6.28-7.54-6.28h-33.92c-3.77,0-6.59,2.82-6.59,6.28v63.75h48.05Zm54.64,98.61h-54.64v-52.76h-48.05v52.76h-54.65V132.01c0-14.76,10.05-24.81,24.81-24.81h107.72c14.76,0,24.81,10.05,24.81,24.81v187.18h0Z"/><path class="cls-2" d="M833.93,155.88c0-1.57-1.57-3.14-2.83-3.14h-45.22v56.53h45.22c1.26,0,2.83-1.57,2.83-2.83v-50.56h0Zm30.46-48.68c12.88,0,23.86,10.36,23.86,23.87v97.04c0,12.88-10.99,23.87-23.86,23.87h-1.57l26.06,67.21h-53.39l-26.38-67.21h-23.24v67.21h-54.65V107.2h133.16Z"/><polygon class="cls-2" points="1078.56 107.2 1078.56 153.05 1030.51 153.05 1030.51 319.19 975.87 319.19 975.87 153.05 927.82 153.05 927.82 107.2 1078.56 107.2 1078.56 107.2"/><path class="cls-2" d="M1223.02,220.57v-63.75c0-3.77-3.14-6.28-7.54-6.28h-33.92c-3.77,0-6.59,2.82-6.59,6.28v63.75h48.05Zm54.65,98.61h-54.65v-52.76h-48.05v52.76h-54.65V132.01c0-14.76,10.05-24.81,24.81-24.81h107.72c14.76,0,24.81,10.05,24.81,24.81v187.18h0Z"/></g></svg>