<svg xmlns="http://www.w3.org/2000/svg" width="596" height="157" fill="none" viewBox="0 0 596 157"><g style="mix-blend-mode:multiply"><path fill="url(#paint0_linear_893_7)" fill-rule="evenodd" d="M595.638 78.6704C595.638 121.749 560.752 156.67 517.719 156.67C474.686 156.67 439.8 121.749 439.8 78.6704C439.8 35.5922 474.686 0.67041 517.719 0.67041C560.752 0.67041 595.638 35.5922 595.638 78.6704ZM495.023 94.4104C487.031 86.4104 483.035 82.4104 483.035 77.44C483.035 72.4694 487.031 68.4694 495.023 60.4694L501.534 53.9496C509.526 45.9496 513.523 41.9496 518.488 41.9496C523.453 41.9496 527.449 45.9496 535.441 53.9496L541.954 60.4694C549.946 68.4694 553.941 72.4694 553.941 77.44C553.941 82.4104 549.946 86.4104 541.954 94.4104L535.441 100.93C527.449 108.93 523.453 112.93 518.488 112.93C513.523 112.93 509.526 108.93 501.534 100.93L495.023 94.4104ZM110.143 46.6704C112.35 46.6704 114.138 44.8796 114.138 42.6704V12.6704C114.138 10.4613 112.35 8.67041 110.143 8.67041H4.25268C2.04584 8.67041 0.256836 10.4613 0.256836 12.6704V144.67C0.256836 146.88 2.04584 148.67 4.25268 148.67H40.2153C42.4222 148.67 44.2112 146.88 44.2112 144.67V107.87C44.2112 105.661 46.0001 103.87 48.207 103.87H96.5568C98.7637 103.87 100.553 102.08 100.553 99.8704V69.8704C100.553 67.6612 98.7637 65.8704 96.5568 65.8704H48.207C46.0001 65.8704 44.2112 64.0796 44.2112 61.8704V50.6704C44.2112 48.4612 46.0001 46.6704 48.207 46.6704H110.143ZM203.03 151.07H203.629C246.385 151.07 272.558 128.27 272.558 84.8704V12.6704C272.558 10.4613 270.77 8.67041 268.562 8.67041H232.599C230.394 8.67041 228.604 10.4613 228.604 12.6704V80.8704C228.604 95.6704 222.21 108.67 203.629 108.67H203.03C184.65 108.67 178.056 95.6704 178.056 80.8704V12.6704C178.056 10.4613 176.268 8.67041 174.061 8.67041H138.098C135.891 8.67041 134.102 10.4613 134.102 12.6704V84.8704C134.102 128.27 160.275 151.07 203.03 151.07ZM292.531 12.6704C292.531 10.4613 294.319 8.67041 296.527 8.67041H425.593C427.801 8.67041 429.589 10.4613 429.589 12.6704V43.2704C429.589 45.4796 427.801 47.2704 425.593 47.2704H387.033C384.825 47.2704 383.037 49.0612 383.037 51.2704V144.67C383.037 146.88 381.249 148.67 379.041 148.67H343.079C340.871 148.67 339.083 146.88 339.083 144.67V51.2704C339.083 49.0612 337.295 47.2704 335.087 47.2704H296.527C294.319 47.2704 292.531 45.4796 292.531 43.2704V12.6704Z" clip-rule="evenodd"/></g><defs><linearGradient id="paint0_linear_893_7" x1=".257" x2="586.923" y1=".67" y2="184.484" gradientUnits="userSpaceOnUse"><stop stop-color="#405DB1"/><stop offset=".504" stop-color="#4F91DC"/><stop offset="1" stop-color="#1BACC6"/></linearGradient></defs></svg>