<svg width="162" height="101" viewBox="0 0 162 101" fill="none" xmlns="http://www.w3.org/2000/svg">
<path fill-rule="evenodd" clip-rule="evenodd" d="M7.4115 67.1865V77.4712H17.8594V67.1865H23.5364V93.9865H17.8594V82.4255H7.4115V93.9865H1.7356V67.1865H7.4115ZM39.5521 93.9867V91.2837H39.4427C38.7929 92.4101 37.9481 93.2232 36.9121 93.7244C35.8763 94.2243 34.8153 94.4748 33.7305 94.4748C32.3576 94.4748 31.2307 94.2869 30.3507 93.911C29.4707 93.5365 28.7775 93.0045 28.2721 92.3167C27.7655 91.6289 27.4103 90.7897 27.2055 89.8018C27.0005 88.8137 26.898 87.7181 26.898 86.5173V74.5816H32.0321V85.5411C32.0321 87.1425 32.2722 88.3374 32.755 89.1256C33.2364 89.914 34.0925 90.3087 35.3219 90.3087C36.7199 90.3087 37.7319 89.8761 38.3591 89.0134C38.9852 88.1494 39.2983 86.7301 39.2983 84.7527V74.5816H44.4323V93.9867H39.5521ZM52.6018 74.5814V77.2087H52.6747C53.3487 76.2077 54.1626 75.4324 55.1154 74.8817C56.0672 74.3309 57.1576 74.0555 58.387 74.0555C59.5675 74.0555 60.6466 74.293 61.6222 74.7682C62.599 75.2445 63.3401 76.0823 63.8455 77.2833C64.3998 76.4334 65.1535 75.6817 66.1052 75.0318C67.0568 74.3805 68.1839 74.0555 69.4861 74.0555C70.4742 74.0555 71.3894 74.1808 72.2329 74.4302C73.0766 74.6807 73.7993 75.0813 74.4027 75.6321C75.0048 76.1828 75.475 76.9025 75.8132 77.7902C76.1501 78.679 76.3186 79.7486 76.3186 80.999V93.9865H71.1846V82.9891C71.1846 82.338 71.1606 81.7258 71.1128 81.149C71.0639 80.5746 70.9318 80.0735 70.7155 79.6481C70.4981 79.2226 70.1782 78.8846 69.7571 78.6341C69.3348 78.3848 68.7632 78.2594 68.0392 78.2594C67.3164 78.2594 66.7324 78.4036 66.2862 78.6908C65.8399 78.9792 65.4904 79.3538 65.2377 79.817C64.9849 80.2804 64.8154 80.8063 64.7312 81.3937C64.6469 81.9822 64.6048 82.5756 64.6048 83.1759V93.9865H59.4708V83.1015C59.4708 82.5259 59.4594 81.9563 59.4354 81.3937C59.4105 80.83 59.3092 80.311 59.1282 79.836C58.9472 79.3609 58.6454 78.9792 58.2243 78.6908C57.8019 78.4036 57.1816 78.2594 56.3619 78.2594C56.1206 78.2594 55.8019 78.3161 55.4045 78.4283C55.0062 78.5407 54.6202 78.7534 54.2468 79.0667C53.8735 79.3798 53.5536 79.8301 53.2896 80.4175C53.023 81.006 52.8911 81.7754 52.8911 82.7257V93.9865H47.7581V74.5814H52.6018ZM80.3315 77.4333C80.8619 76.6084 81.537 75.9454 82.3567 75.4442C83.1751 74.9443 84.0971 74.5873 85.1216 74.3746C86.1461 74.1618 87.1765 74.0555 88.2135 74.0555C89.1527 74.0555 90.1043 74.1241 91.0696 74.2623C92.0327 74.3995 92.9127 74.6689 93.7083 75.0683C94.504 75.4691 95.154 76.0258 95.6606 76.7395C96.1673 77.4522 96.42 78.3977 96.42 79.5724V89.6703C96.42 90.546 96.4678 91.3839 96.5645 92.1841C96.6601 92.9854 96.8298 93.5859 97.0711 93.9865H91.8642C91.7674 93.6863 91.6888 93.3801 91.6297 93.067C91.5694 92.7537 91.5261 92.4347 91.5034 92.1097C90.6838 92.9854 89.7196 93.5987 88.6108 93.9486C87.502 94.2984 86.3693 94.4746 85.2127 94.4746C84.3203 94.4746 83.4893 94.3623 82.7174 94.1365C81.9457 93.9108 81.2717 93.561 80.6934 93.0859C80.1152 92.6107 79.6632 92.0104 79.3376 91.2835C79.0121 90.5578 78.8492 89.6951 78.8492 88.694C78.8492 87.5925 79.0361 86.686 79.4094 85.9723C79.7828 85.2596 80.2654 84.6911 80.8562 84.2644C81.4459 83.8401 82.1209 83.521 82.8803 83.3071C83.6395 83.0956 84.4045 82.9265 85.1763 82.8012C85.947 82.676 86.7063 82.5756 87.4542 82.5011C88.201 82.4255 88.8634 82.3133 89.4418 82.1631C90.0212 82.013 90.4777 81.7944 90.8157 81.506C91.1528 81.2188 91.3098 80.7992 91.286 80.2484C91.286 79.6729 91.196 79.2167 91.015 78.8787C90.834 78.5407 90.5927 78.2784 90.2921 78.0903C89.9905 77.9024 89.641 77.7772 89.2438 77.7145C88.8453 77.6531 88.4173 77.6213 87.9597 77.6213C86.9476 77.6213 86.1518 77.8469 85.5736 78.2973C84.9954 78.7475 84.6572 79.4979 84.5616 80.5487H79.4276C79.5004 79.2983 79.801 78.2594 80.3315 77.4333V77.4333ZM90.4733 84.9593C90.1477 85.0716 89.7983 85.1662 89.4249 85.2406C89.0504 85.3163 88.6588 85.3789 88.2489 85.4285C87.8391 85.4795 87.4293 85.5409 87.0206 85.6164C86.6347 85.691 86.2545 85.7914 85.8812 85.9167C85.5077 86.0419 85.1822 86.211 84.9056 86.4225C84.6279 86.6365 84.4047 86.9047 84.2362 87.2297C84.0678 87.556 83.9835 87.9683 83.9835 88.4683C83.9835 88.9445 84.0678 89.3452 84.2362 89.6703C84.4047 89.9953 84.6334 90.2517 84.9226 90.4397C85.2129 90.6264 85.5499 90.7587 85.9358 90.8332C86.3205 90.9089 86.719 90.9454 87.1288 90.9454C88.1407 90.9454 88.9239 90.7718 89.4784 90.4207C90.0328 90.0709 90.4426 89.6513 90.7078 89.1632C90.973 88.6751 91.1358 88.1812 91.1962 87.68C91.2553 87.1801 91.2861 86.7795 91.2861 86.4792V84.4902C91.0698 84.6911 90.7977 84.847 90.4733 84.9593V84.9593ZM104.915 74.5814V77.2833H105.023C105.674 76.1569 106.518 75.3378 107.554 74.8249C108.59 74.312 109.651 74.0555 110.736 74.0555C112.11 74.0555 113.236 74.2493 114.117 74.6369C114.995 75.0259 115.689 75.5636 116.195 76.2514C116.701 76.9392 117.056 77.7772 117.262 78.7664C117.466 79.7544 117.569 80.8489 117.569 82.0508V93.9865H112.435V83.0258C112.435 81.4256 112.194 80.2296 111.712 79.4413C111.23 78.6529 110.375 78.2594 109.145 78.2594C107.747 78.2594 106.734 78.6908 106.108 79.5547C105.481 80.4175 105.168 81.838 105.168 83.8142V93.9865H100.034V74.5814H104.915ZM120.895 71.5784H126.029V67.1865H120.895V71.5784ZM120.894 93.9866H126.028V74.5816H120.894V93.9866ZM140.707 74.5815V78.1471H136.947V87.7557C136.947 88.6562 137.091 89.2568 137.38 89.5568C137.67 89.8571 138.248 90.0072 139.115 90.0072C139.405 90.0072 139.682 89.9954 139.948 89.9705C140.213 89.9456 140.466 89.9079 140.707 89.8571V93.9865C140.273 94.061 139.791 94.1117 139.26 94.1366C138.73 94.1615 138.211 94.1745 137.706 94.1745C136.91 94.1745 136.157 94.1176 135.447 94.0054C134.735 93.8931 134.109 93.6733 133.566 93.3484C133.024 93.0233 132.596 92.56 132.283 91.9597C131.97 91.3592 131.813 90.5708 131.813 89.5947V78.1471H128.704V74.5815H131.813V68.7632H136.947V74.5815H140.707ZM151.878 99.7671C150.89 100.442 149.516 100.78 147.756 100.78C147.225 100.78 146.702 100.761 146.184 100.724C145.665 100.687 145.141 100.643 144.61 100.593V96.2015C145.093 96.2511 145.587 96.3008 146.094 96.3516C146.599 96.4012 147.106 96.413 147.611 96.3894C148.286 96.3137 148.787 96.0383 149.111 95.5632C149.437 95.0869 149.6 94.5623 149.6 93.9867C149.6 93.5612 149.528 93.1606 149.383 92.7859L142.839 74.5816H148.299L152.529 87.8681H152.601L156.686 74.5816H162L154.192 96.3894C153.637 97.9649 152.866 99.0911 151.878 99.7671V99.7671Z" fill="black"/>
<path fill-rule="evenodd" clip-rule="evenodd" d="M15.8292 49.7804L12.5916 40.0974H12.5192L9.17399 49.7804H15.8292ZM15.5056 33.5933L25.1117 59.9797H19.2472L17.3045 54.1044H7.69839L5.68426 59.9797H0L9.71365 33.5933H15.5056ZM36.6595 55.0286C37.2111 54.7331 37.6677 54.3386 38.0268 53.8451C38.3869 53.353 38.6567 52.7921 38.8366 52.1636C39.0168 51.5364 39.1063 50.8766 39.1063 50.1865C39.1063 49.3987 39.0338 48.6528 38.8899 47.9511C38.746 47.2494 38.507 46.6268 38.1706 46.0846C37.8354 45.5434 37.3913 45.1117 36.8396 44.7917C36.2879 44.4718 35.5924 44.3111 34.753 44.3111C34.0337 44.3111 33.4164 44.4589 32.901 44.7544C32.3843 45.0501 31.9526 45.4503 31.6049 45.9554C31.2572 46.4603 31.0057 47.04 30.8494 47.6928C30.6932 48.3455 30.6161 49.0287 30.6161 49.7432C30.6161 50.4333 30.6817 51.1174 30.8143 51.7948C30.9457 52.472 31.1734 53.0818 31.4974 53.624C31.8213 54.1664 32.2461 54.6097 32.7741 54.9541C33.3019 55.2998 33.9611 55.4719 34.753 55.4719C35.4723 55.4719 36.1078 55.3241 36.6595 55.0286V55.0286ZM43.6575 61.3844C43.4526 62.37 43.0152 63.2882 42.3436 64.1377C41.6718 64.9884 40.701 65.7087 39.43 66.2999C38.1579 66.891 36.4552 67.1866 34.3211 67.1866C33.4092 67.1866 32.4803 67.0702 31.5334 66.8363C30.5852 66.6012 29.722 66.2381 28.9426 65.7459C28.1634 65.2524 27.5153 64.6183 26.9999 63.8422C26.4843 63.0659 26.191 62.1363 26.1186 61.0517H31.1912C31.4302 62.0372 31.8981 62.7215 32.5948 63.1032C33.2892 63.4849 34.0934 63.6757 35.0042 63.6757C36.4441 63.6757 37.4929 63.2324 38.1523 62.3457C38.8115 61.4589 39.1298 60.3371 39.106 58.9827V56.469H39.0336C38.4819 57.4803 37.6969 58.225 36.6774 58.7057C35.6578 59.1863 34.5851 59.426 33.4579 59.426C32.0668 59.426 30.8672 59.1735 29.8602 58.6684C28.8531 58.1635 28.025 57.4734 27.3782 56.5994C26.7303 55.7243 26.2568 54.7014 25.9565 53.5319C25.6564 52.3612 25.5069 51.1231 25.5069 49.8175C25.5069 48.5851 25.6801 47.397 26.0291 46.2508C26.3757 45.1046 26.8854 44.0957 27.5572 43.2206C28.229 42.3454 29.0627 41.6497 30.0583 41.1318C31.053 40.6151 32.1983 40.3556 33.4941 40.3556C34.7163 40.3556 35.7903 40.5906 36.7135 41.0584C37.6367 41.5262 38.4105 42.3153 39.0336 43.423H39.106V40.8735H43.9623V58.7603C43.9623 59.5249 43.8604 60.3989 43.6575 61.3844V61.3844ZM48.0279 43.6826C48.5548 42.8691 49.2266 42.2164 50.0421 41.724C50.8577 41.2307 51.7753 40.8804 52.7948 40.6698C53.8144 40.4616 54.8395 40.3556 55.8703 40.3556C56.806 40.3556 57.753 40.4243 58.7125 40.5593C59.672 40.6955 60.5477 40.9607 61.3394 41.3541C62.1312 41.7486 62.778 42.2967 63.2821 42.9983C63.7851 43.7012 64.0377 44.631 64.0377 45.7889V55.7301C64.0377 56.5936 64.0854 57.4187 64.1815 58.2064C64.2768 58.9954 64.4456 59.5866 64.6845 59.9799H59.5043C59.408 59.6844 59.3298 59.3829 59.271 59.0746C59.211 58.7673 59.1679 58.4532 59.1452 58.1332C58.3284 58.9954 57.3691 59.5982 56.2668 59.9438C55.1635 60.2882 54.0363 60.4605 52.8843 60.4605C51.9973 60.4605 51.1693 60.35 50.4023 60.1288C49.6342 59.9067 48.9637 59.5621 48.3882 59.0932C47.8117 58.6253 47.3619 58.0341 47.0391 57.3198C46.7151 56.6052 46.5531 55.7557 46.5531 54.7689C46.5531 53.6856 46.7388 52.7919 47.1105 52.0902C47.4819 51.3885 47.9612 50.8275 48.5491 50.4086C49.1369 49.9897 49.8087 49.6756 50.5644 49.466C51.3199 49.2566 52.0812 49.0901 52.8491 48.9669C53.6161 48.8446 54.3716 48.7457 55.1159 48.6712C55.859 48.598 56.5183 48.4862 57.0936 48.3384C57.6692 48.1908 58.1246 47.9754 58.461 47.6926C58.7964 47.4087 58.9526 46.9967 58.9288 46.4544C58.9288 45.8878 58.8394 45.4374 58.6593 45.1046C58.4792 44.7729 58.2391 44.5135 57.9399 44.3296C57.6398 44.1445 57.292 44.0212 56.8966 43.9594C56.5002 43.8979 56.0742 43.8676 55.6189 43.8676C54.6117 43.8676 53.8199 44.0886 53.2445 44.5321C52.669 44.9754 52.3326 45.7155 52.2375 46.7501H47.1286C47.201 45.5177 47.5001 44.4948 48.0279 43.6826V43.6826ZM58.1192 51.0916C57.7964 51.2034 57.4474 51.2954 57.0759 51.3698C56.7043 51.4431 56.3146 51.5049 55.9069 51.5536C55.499 51.6038 55.0912 51.6655 54.6834 51.7387C54.2994 51.8132 53.9221 51.9121 53.5507 52.0344C53.178 52.1576 52.8552 52.3241 52.5788 52.5335C52.3034 52.743 52.0815 53.0083 51.9138 53.3283C51.7461 53.6484 51.6622 54.0556 51.6622 54.5479C51.6622 55.0157 51.7461 55.4101 51.9138 55.7302C52.0815 56.0514 52.309 56.3027 52.5968 56.4877C52.8845 56.6728 53.2209 56.8018 53.605 56.8764C53.9879 56.9497 54.3833 56.9869 54.7921 56.9869C55.7993 56.9869 56.5787 56.8147 57.1302 56.469C57.682 56.1246 58.0897 55.7115 58.3537 55.2309C58.6176 54.7515 58.7784 54.2651 58.8397 53.7716C58.8986 53.2795 58.9291 52.885 58.9291 52.5895V50.6298C58.7128 50.8276 58.4432 50.9811 58.1192 51.0916V51.0916ZM67.778 37.9175H72.8868V33.5934H67.778V37.9175ZM67.778 59.98H72.8868V40.8736H67.778V59.98ZM81.4134 40.8735V43.5348H81.521C82.1689 42.4258 83.0084 41.6193 84.0392 41.1143C85.07 40.6093 86.1258 40.3556 87.2054 40.3556C88.5727 40.3556 89.693 40.5477 90.5698 40.9292C91.4443 41.311 92.1342 41.8405 92.6382 42.5177C93.1412 43.1962 93.4947 44.0212 93.6997 44.9941C93.9024 45.968 94.0054 47.0456 94.0054 48.2279V59.9799H88.8965V49.189C88.8965 47.6123 88.6564 46.4358 88.1773 45.6596C87.6969 44.8834 86.8452 44.4948 85.6228 44.4948C84.2306 44.4948 83.2236 44.9207 82.6005 45.7702C81.9764 46.6209 81.6648 48.0185 81.6648 49.9653V59.9799H76.556V40.8735H81.4134ZM101.47 55.2309C101.698 55.6382 101.992 55.971 102.351 56.2294C102.711 56.4877 103.125 56.6797 103.593 56.8018C104.061 56.9252 104.545 56.9868 105.05 56.9868C105.41 56.9868 105.787 56.9439 106.184 56.8578C106.579 56.7716 106.938 56.6355 107.262 56.4504C107.586 56.2666 107.855 56.0199 108.072 55.7114C108.287 55.4043 108.396 55.0157 108.396 54.5479C108.396 53.76 107.886 53.1678 106.866 52.7732C105.847 52.3799 104.425 51.9855 102.604 51.5909C101.86 51.4188 101.134 51.2162 100.427 50.9811C99.7186 50.7472 99.0899 50.4401 98.5382 50.0572C97.9854 49.6756 97.5426 49.1948 97.2072 48.6165C96.8708 48.0371 96.7031 47.3284 96.7031 46.4905C96.7031 45.2593 96.9364 44.2493 97.4044 43.4603C97.8722 42.6724 98.4895 42.0499 99.2576 41.5937C100.024 41.1388 100.888 40.8176 101.848 40.6337C102.807 40.4487 103.791 40.3556 104.798 40.3556C105.805 40.3556 106.783 40.4545 107.73 40.6524C108.677 40.849 109.523 41.1818 110.266 41.6497C111.009 42.1175 111.628 42.74 112.119 43.5161C112.61 44.2924 112.904 45.2709 113.001 46.4544H108.143C108.072 45.4444 107.699 44.76 107.029 44.4029C106.357 44.0457 105.565 43.8676 104.654 43.8676C104.366 43.8676 104.054 43.885 103.719 43.9223C103.382 43.9594 103.076 44.0398 102.801 44.1632C102.526 44.2866 102.291 44.4645 102.1 44.6986C101.907 44.9335 101.812 45.2477 101.812 45.641C101.812 46.1088 101.98 46.4905 102.315 46.7873C102.651 47.0827 103.089 47.3226 103.629 47.5076C104.168 47.6926 104.786 47.859 105.481 48.0069C106.177 48.1545 106.885 48.3152 107.604 48.4862C108.347 48.6596 109.073 48.869 109.78 49.1146C110.488 49.3613 111.117 49.6883 111.67 50.0945C112.221 50.5005 112.664 51.0056 113.001 51.6096C113.336 52.2134 113.504 52.9582 113.504 53.845C113.504 55.1017 113.258 56.1547 112.766 57.0055C112.274 57.855 111.633 58.5392 110.842 59.057C110.051 59.5737 109.145 59.938 108.126 60.1462C107.106 60.3558 106.069 60.4605 105.013 60.4605C103.935 60.4605 102.879 60.35 101.848 60.1288C100.816 59.9067 99.8988 59.5365 99.0955 59.0199C98.2913 58.5021 97.6319 57.8189 97.1166 56.9683C96.6012 56.1188 96.3191 55.0528 96.2715 53.7716H101.128C101.128 54.3385 101.242 54.8248 101.47 55.2309V55.2309ZM126.708 40.8737V44.3844H122.966V53.8451C122.966 54.733 123.11 55.3241 123.398 55.6198C123.685 55.9153 124.261 56.0631 125.124 56.0631C125.412 56.0631 125.687 56.0515 125.952 56.0258C126.215 56.0013 126.467 55.9653 126.708 55.9153V59.98C126.276 60.0546 125.796 60.1034 125.268 60.129C124.74 60.1522 124.225 60.1651 123.722 60.1651C122.93 60.1651 122.18 60.1103 121.473 59.9986C120.765 59.8881 120.142 59.6728 119.602 59.3529C119.062 59.0328 118.637 58.5766 118.325 57.9844C118.012 57.3931 117.857 56.617 117.857 55.6569V44.3844H114.764V40.8737H117.857V35.1448H122.966V40.8737H126.708Z" fill="black"/>
<mask id="mask0" mask-type="alpha" maskUnits="userSpaceOnUse" x="1" y="0" width="102" height="28">
<path fill-rule="evenodd" clip-rule="evenodd" d="M1.7356 0H102.407V27.2221H1.7356V0Z" fill="white"/>
</mask>
<g mask="url(#mask0)">
<path fill-rule="evenodd" clip-rule="evenodd" d="M19.5914 7.56176C19.2499 7.01554 18.8244 6.53595 18.3129 6.12285C17.8024 5.70975 17.224 5.3873 16.5791 5.15666C15.934 4.92602 15.2579 4.8102 14.552 4.8102C13.2619 4.8102 12.1663 5.06029 11.266 5.55718C10.3647 6.05507 9.63438 6.72412 9.07459 7.56176C8.51466 8.3994 8.10761 9.354 7.85114 10.4223C7.59596 11.4917 7.4683 12.5967 7.4683 13.7384C7.4683 14.832 7.59596 15.8945 7.85114 16.9272C8.10761 17.9599 8.51466 18.8893 9.07459 19.7155C9.63438 20.5416 10.3647 21.2038 11.266 21.7006C12.1663 22.1997 13.2619 22.4488 14.552 22.4488C16.3054 22.4488 17.6747 21.914 18.6601 20.8446C19.6465 19.7763 20.249 18.3673 20.4675 16.6175H26.0185C25.8724 18.2456 25.4941 19.7155 24.8859 21.027C24.2777 22.3385 23.4741 23.4561 22.4761 24.3799C21.478 25.3036 20.3088 26.0081 18.9705 26.4934C17.631 26.9788 16.1593 27.2221 14.552 27.2221C12.556 27.2221 10.7601 26.8756 9.16658 26.1837C7.57175 25.4906 6.22665 24.5383 5.13086 23.3232C4.03636 22.1079 3.19574 20.6806 2.61174 19.0407C2.02774 17.4012 1.7356 15.634 1.7356 13.7384C1.7356 11.7947 2.02774 9.99088 2.61174 8.32719C3.19574 6.66335 4.03636 5.21171 5.13086 3.97256C6.22665 2.73326 7.57175 1.76136 9.16658 1.05684C10.7601 0.352328 12.556 0 14.552 0C15.9881 0 17.3459 0.206621 18.6232 0.61972C19.9018 1.03282 21.0458 1.63409 22.0565 2.4234C23.0659 3.21285 23.9006 4.19062 24.5571 5.35742C25.2149 6.52322 25.6287 7.86004 25.7989 9.36558H20.249C20.1513 8.70911 19.9316 8.10784 19.5914 7.56176V7.56176ZM29.3413 10.568C29.8758 9.766 30.5577 9.1234 31.3856 8.63694C32.2133 8.15164 33.1434 7.80503 34.1793 7.59855C35.2131 7.39193 36.2536 7.28869 37.3011 7.28869C38.2507 7.28869 39.2119 7.35532 40.1857 7.4883C41.1596 7.62257 42.0483 7.88424 42.8508 8.27203C43.6546 8.66097 44.3123 9.20147 44.8228 9.89454C45.3343 10.5865 45.5896 11.5032 45.5896 12.645V22.4488C45.5896 23.299 45.639 24.1126 45.7357 24.8894C45.8333 25.6674 46.0035 26.2502 46.2472 26.6391H40.9895C40.8918 26.3477 40.8124 26.0506 40.7515 25.7465C40.6905 25.4425 40.6479 25.1326 40.6239 24.817C39.796 25.6674 38.8221 26.2629 37.7023 26.6025C36.5824 26.9421 35.4385 27.113 34.2703 27.113C33.3688 27.113 32.5295 27.0029 31.7512 26.785C30.9716 26.5658 30.2898 26.2262 29.7058 25.7649C29.1216 25.3036 28.6651 24.7206 28.3363 24.015C28.0076 23.3105 27.8432 22.4728 27.8432 21.5009C27.8432 20.4315 28.0317 19.5514 28.41 18.8583C28.7871 18.1665 29.2734 17.6146 29.8701 17.2003C30.4669 16.7873 31.1487 16.4785 31.9156 16.2709C32.6825 16.0654 33.4539 15.9014 34.2335 15.7797C35.0129 15.6582 35.7799 15.5605 36.5341 15.4883C37.2883 15.4148 37.9586 15.3059 38.5427 15.1602C39.1269 15.0145 39.589 14.8021 39.9305 14.5221C40.271 14.2435 40.4284 13.8359 40.4054 13.3013C40.4054 12.7425 40.3134 12.2996 40.1306 11.9713C39.9489 11.6432 39.7052 11.3885 39.4004 11.2061C39.0958 11.0236 38.7439 10.9019 38.3416 10.8411C37.9403 10.7815 37.508 10.7505 37.0458 10.7505C36.0225 10.7505 35.22 10.9685 34.6358 11.407C34.0507 11.8441 33.7103 12.5726 33.6125 13.5927H28.4283C28.5008 12.3789 28.8056 11.3701 29.3413 10.568V10.568ZM39.583 17.8749C39.2541 17.984 38.9012 18.0745 38.5241 18.148C38.1457 18.2215 37.7514 18.2823 37.3374 18.3305C36.9237 18.3786 36.5097 18.4396 36.0958 18.5129C35.7059 18.5851 35.3231 18.6826 34.946 18.8043C34.5677 18.926 34.2389 19.0902 33.9595 19.2955C33.679 19.5031 33.4536 19.7637 33.2845 20.0792C33.1133 20.3958 33.0282 20.7963 33.0282 21.2818C33.0282 21.7442 33.1133 22.1331 33.2845 22.4487C33.4536 22.7642 33.6859 23.0133 33.9779 23.1956C34.27 23.377 34.6103 23.5054 35 23.5778C35.3899 23.6511 35.791 23.6867 36.205 23.6867C37.2283 23.6867 38.0182 23.517 38.5792 23.1773C39.138 22.8365 39.552 22.4303 39.8199 21.9564C40.0877 21.4824 40.2522 21.0028 40.3131 20.5164C40.3741 20.031 40.405 19.642 40.405 19.3506V17.4193C40.1854 17.6145 39.9119 17.7659 39.583 17.8749V17.8749ZM54.1699 7.79816V11.2967H54.2435C54.4862 10.7137 54.815 10.1734 55.2289 9.67534C55.6428 9.17731 56.1177 8.75291 56.6534 8.39944C57.1881 8.04825 57.7606 7.77514 58.37 7.5801C58.9782 7.38621 59.6105 7.28869 60.2683 7.28869C60.6086 7.28869 60.9857 7.34946 61.4008 7.47114V12.2812C61.1571 12.233 60.8649 12.1894 60.5236 12.1538C60.1832 12.1172 59.8544 12.0987 59.5382 12.0987C58.5885 12.0987 57.7849 12.257 57.1282 12.5726C56.4706 12.8882 55.9417 13.3197 55.5393 13.8658C55.1381 14.4132 54.8518 15.0501 54.6816 15.7797C54.5114 16.5084 54.4263 17.2979 54.4263 18.1481V26.6391H49.2409V7.79816H54.1699ZM77.4307 14.9227C77.2846 14.2068 77.034 13.5744 76.6821 13.0282C76.3281 12.4809 75.8716 12.038 75.3128 11.6984C74.7517 11.3575 74.0458 11.1877 73.195 11.1877C72.3418 11.1877 71.6244 11.3575 71.0404 11.6984C70.4562 12.038 69.9871 12.4879 69.6341 13.0465C69.2812 13.6055 69.026 14.2435 68.8673 14.9595C68.7085 15.6765 68.6304 16.4235 68.6304 17.2004C68.6304 17.9289 68.7156 18.6588 68.8856 19.3874C69.0558 20.116 69.3295 20.7667 69.7078 21.337C70.0849 21.9084 70.5585 22.3696 71.1312 22.7218C71.7026 23.0742 72.3914 23.2497 73.195 23.2497C74.0458 23.2497 74.7586 23.0799 75.33 22.7403C75.9027 22.3995 76.3592 21.944 76.6994 21.3737C77.0409 20.8022 77.2846 20.1527 77.4307 19.424C77.5767 18.6944 77.6491 17.9417 77.6491 17.1636C77.6491 16.3868 77.5767 15.6399 77.4307 14.9227V14.9227ZM77.649 24.2341C77.0408 25.2542 76.2428 25.9896 75.2575 26.4383C74.271 26.8881 73.1581 27.1129 71.9164 27.1129C70.5044 27.1129 69.2628 26.84 68.1922 26.2926C67.1206 25.7464 66.2377 25.0051 65.5444 24.0699C64.8511 23.1349 64.3268 22.0596 63.9738 20.8445C63.6209 19.6305 63.4449 18.3672 63.4449 17.0545C63.4449 15.7924 63.6209 14.5714 63.9738 13.3919C64.3268 12.2146 64.8511 11.1762 65.5444 10.2765C66.2377 9.37811 67.108 8.65515 68.1555 8.10779C69.2017 7.56171 70.4193 7.28859 71.8071 7.28859C72.9258 7.28859 73.9917 7.52496 75.0023 7.99883C76.0117 8.47284 76.8097 9.17149 77.3938 10.0941H77.4663V0.619667H82.6515V26.639H77.7226V24.2341H77.649ZM90.1921 21.9565C90.4232 22.357 90.7222 22.6852 91.0865 22.9398C91.4522 23.1956 91.8718 23.384 92.3467 23.5055C92.8215 23.6272 93.3148 23.6868 93.8253 23.6868C94.1909 23.6868 94.5738 23.6455 94.9763 23.5594C95.3774 23.4746 95.7419 23.3414 96.0708 23.159C96.3996 22.9766 96.6732 22.7345 96.8929 22.4304C97.1112 22.1262 97.2217 21.7443 97.2217 21.2819C97.2217 20.505 96.7043 19.922 95.6694 19.5331C94.6347 19.144 93.1917 18.7551 91.343 18.3673C90.5876 18.1974 89.8506 17.9967 89.1331 17.766C88.4145 17.5354 87.7765 17.2314 87.2165 16.855C86.6554 16.4785 86.2059 16.0047 85.8656 15.4333C85.524 14.863 85.3538 14.1642 85.3538 13.338C85.3538 12.1229 85.592 11.127 86.0656 10.3501C86.5405 9.5721 87.167 8.95939 87.9466 8.50954C88.725 8.05984 89.6022 7.74426 90.576 7.5618C91.5488 7.37934 92.5478 7.28869 93.5701 7.28869C94.5921 7.28869 95.5845 7.38621 96.5456 7.5801C97.5068 7.77514 98.3656 8.10216 99.1199 8.56345C99.8742 9.02588 100.502 9.63859 101.001 10.404C101.5 11.1693 101.798 12.1355 101.895 13.3013H96.9652C96.8929 12.3054 96.5145 11.6317 95.8339 11.2784C95.1521 10.9272 94.3484 10.7505 93.4241 10.7505C93.132 10.7505 92.8146 10.7689 92.4743 10.8057C92.1328 10.8411 91.8224 10.9204 91.543 11.042C91.2636 11.1636 91.0256 11.3403 90.8314 11.5698C90.6359 11.8016 90.5394 12.1113 90.5394 12.4993C90.5394 12.9617 90.7094 13.338 91.0497 13.6295C91.3913 13.9209 91.835 14.1572 92.3835 14.3397C92.9308 14.5221 93.5574 14.6863 94.2633 14.832C94.9692 14.9777 95.6879 15.1361 96.4181 15.3059C97.1723 15.4757 97.9092 15.6822 98.6267 15.9256C99.3452 16.1688 99.9845 16.49 100.544 16.8905C101.104 17.2921 101.554 17.79 101.895 18.3845C102.236 18.98 102.407 19.7155 102.407 20.5899C102.407 21.8291 102.157 22.8676 101.657 23.7051C101.158 24.544 100.508 25.2175 99.704 25.7282C98.9015 26.2376 97.9817 26.5968 96.9481 26.8033C95.912 27.0086 94.8601 27.113 93.7885 27.113C92.6938 27.113 91.6223 27.0029 90.576 26.785C89.5287 26.5658 88.5974 26.202 87.7823 25.6914C86.9659 25.1808 86.2966 24.5073 85.7735 23.6685C85.2504 22.8309 84.9641 21.7798 84.9158 20.5164H89.8449C89.8449 21.0764 89.9609 21.5548 90.1921 21.9565V21.9565Z" fill="black"/>
</g>
</svg>