<?xml version="1.0" encoding="UTF-8" standalone="no"?>
<!DOCTYPE svg PUBLIC "-//W3C//DTD SVG 1.1//EN" "http://www.w3.org/Graphics/SVG/1.1/DTD/svg11.dtd">
<svg width="100%" height="100%" viewBox="0 0 1280 310" version="1.1" xmlns="http://www.w3.org/2000/svg" xmlns:xlink="http://www.w3.org/1999/xlink" xml:space="preserve" xmlns:serif="http://www.serif.com/" style="fill-rule:evenodd;clip-rule:evenodd;stroke-linejoin:round;stroke-miterlimit:2;">
    <g transform="matrix(1,0,0,1,-1.34837e-13,-240)">
        <g transform="matrix(0.817021,0,0,0.627907,3178.21,44.6512)">
            <g transform="matrix(2.56525,0,0,3.33701,-3902.43,284.891)">
                <g transform="matrix(1,0,0,1,542.581,117.395)">
                    <path d="M0,-71.552C-0.158,-71.428 -0.316,-71.304 -0.474,-71.18C12.219,-47.176 12.034,-23.214 -0.762,0.723C5.17,-6.106 10.067,-13.491 13.234,-21.918C15.899,-29.009 16.813,-36.274 14.936,-43.719C13.502,-49.402 11.216,-54.756 8.08,-59.698C5.518,-63.733 2.703,-67.607 0,-71.552M12.895,-87.874C29.709,-52.837 29.103,-17.86 12.699,17.218C12.921,17.062 13.031,17.02 13.088,16.94C21.396,5.509 28.254,-6.653 31.938,-20.409C34.257,-29.068 34.815,-37.781 32.886,-46.608C29.529,-61.97 22.059,-75.335 12.895,-87.874M30.489,-102.676C30.335,-102.594 30.181,-102.512 30.026,-102.43C50.18,-57.588 49.913,-12.823 29.524,31.867C36.683,22.614 43.81,9.926 48.568,-1.553C52.542,-11.14 55.23,-21.059 56.022,-31.398C56.669,-39.839 55.446,-48.153 53.245,-56.315C49.962,-68.486 44.714,-79.814 38.263,-90.598C35.807,-94.704 33.088,-98.655 30.489,-102.676M72.89,-35.868C72.89,-16.823 72.652,2.225 72.99,21.264C73.162,30.99 65.887,36.221 59.349,37.586C57.861,37.896 56.306,38.001 54.781,38.003C38.173,38.032 21.564,38.012 4.957,38.026C-0.542,38.031 -5.394,36.395 -9.296,32.434C-11.905,29.786 -13.188,26.543 -13.187,22.812C-13.187,21.115 -13.188,19.419 -13.189,17.722C-13.218,-19.216 -13.155,-56.156 -13.343,-93.094C-13.39,-102.207 -6.357,-107.897 0.794,-109.164C2.291,-109.43 3.84,-109.497 5.365,-109.5C22.193,-109.522 39.021,-109.584 55.848,-109.475C61.842,-109.437 66.908,-107.087 70.524,-102.137C72.032,-100.073 72.883,-97.734 72.883,-95.136L72.883,-35.868L72.89,-35.868Z" style="fill-rule:nonzero;"/>
                </g>
                <g transform="matrix(1,0,0,1,297.697,145.379)">
                    <path d="M0,-30.561C0.692,-31.535 1.334,-32.538 2.074,-33.462C6.788,-39.361 15.317,-40.463 20.795,-35.863C23.904,-33.251 25.117,-29.695 25.228,-25.813C25.462,-17.625 22.479,-10.505 17.354,-4.275C12.681,1.405 6.787,5.702 0.658,9.675C0.317,9.897 -0.417,9.902 -0.754,9.682C-7.657,5.175 -14.337,0.351 -19.146,-6.477C-23.296,-12.371 -25.792,-18.917 -25.284,-26.283C-24.905,-31.779 -22.608,-36.113 -17.064,-37.957C-11.87,-39.687 -7.214,-38.503 -3.325,-34.675C-2.101,-33.471 -1.145,-31.996 0,-30.561" style="fill:rgb(227,24,18);fill-rule:nonzero;"/>
                </g>
                <g transform="matrix(1,0,0,1,278.194,25.9718)">
                    <path d="M0,62.619L-8.135,62.619L-8.135,60.637C-8.135,46.848 -8.113,33.058 -8.163,19.269C-8.169,17.543 -8.431,15.791 -8.794,14.098C-9.389,11.322 -11.209,9.743 -13.981,9.041C-20.144,7.481 -27.151,11.058 -28.662,16.881C-29.227,19.061 -29.256,21.421 -29.267,23.699C-29.321,35.901 -29.292,48.103 -29.293,60.306L-29.293,62.299L-37.705,62.299L-37.705,60.337C-37.705,46.767 -37.688,33.197 -37.727,19.627C-37.731,17.89 -37.806,16.099 -38.221,14.427C-39.201,10.477 -42.784,8.192 -46.952,8.628C-49.484,8.893 -51.851,9.553 -53.958,11.099C-57.078,13.389 -58.425,16.435 -58.474,20.251C-58.648,33.925 -58.894,47.598 -59.115,61.27C-59.12,61.586 -59.152,61.9 -59.176,62.29L-67.241,62.29L-67.241,3.062L-59.442,3.062L-59.442,10.51C-55.796,5.317 -51.379,1.576 -44.779,1.572C-38.128,1.569 -33.681,5.204 -30.634,10.649C-28.736,8.678 -27.056,6.486 -24.953,4.829C-18.821,0 -9.192,0.452 -3.427,5.677C-0.912,7.956 0.006,11.076 0.031,14.265C0.159,30.187 0.116,46.11 0.128,62.033C0.128,62.187 0.062,62.342 0,62.619" style="fill-rule:nonzero;"/>
                </g>
                <g transform="matrix(1,0,0,1,347.373,38.8842)">
                    <path d="M0,20.856C0,23.37 -0.239,25.913 0.061,28.39C0.437,31.503 0.956,34.663 1.954,37.621C3.374,41.829 6.835,43.625 11.121,43.803C14.88,43.96 17.769,42.327 19.751,39.128C22.037,35.442 22.886,31.318 22.957,27.094C23.046,21.744 22.902,16.381 22.64,11.035C22.472,7.6 21.768,4.219 20.121,1.124C17.98,-2.897 14.252,-4.76 9.951,-4.179C5.647,-3.598 3.373,-0.833 1.978,2.91C-0.185,8.71 -0.032,14.806 0,20.856M23.375,49.327L23.375,41.974C23.273,41.932 23.172,41.891 23.07,41.85C22.831,42.214 22.551,42.558 22.359,42.946C19.402,48.898 14.605,51.466 7.973,51.195C1.524,50.93 -2.786,47.753 -5.577,42.177C-7.691,37.954 -8.626,33.384 -8.833,28.747C-9.084,23.078 -9.149,17.375 -8.825,11.713C-8.47,5.502 -7.06,-0.525 -2.997,-5.529C2.809,-12.681 13.256,-13.103 19.72,-6.51C20.66,-5.552 21.523,-4.52 22.843,-3.596L22.843,-30.61L31.238,-30.61L31.238,49.327L23.375,49.327Z" style="fill-rule:nonzero;"/>
                </g>
                <g transform="matrix(1,0,0,1,37.0532,37.3854)">
                    <path d="M0,24.265C-0.232,19.21 -0.262,15.816 -0.576,12.448C-0.931,8.642 -1.653,4.925 -3.718,1.553C-7.15,-4.049 -16.638,-4.558 -20.097,1.985C-20.83,3.37 -21.618,4.848 -21.84,6.362C-22.521,10.992 -23.202,15.649 -23.389,20.315C-23.623,26.143 -23.584,32.018 -21.894,37.702C-20.457,42.535 -17.2,45.003 -12.012,45.329C-8.139,45.573 -4.455,43.182 -2.625,39.122C-2.024,37.789 -1.414,36.388 -1.213,34.961C-0.639,30.87 -0.271,26.751 0,24.265M-0.238,-1.693L-0.238,-29.074L8.037,-29.074L8.037,50.831L0.128,50.831L0.128,43.393C-0.772,44.814 -1.412,45.858 -2.087,46.878C-4.158,50.01 -7.02,51.94 -10.771,52.448C-17.353,53.339 -23.101,52.007 -27.071,46.162C-29.257,42.945 -30.489,39.319 -31.089,35.527C-32.525,26.45 -32.624,17.338 -31.11,8.262C-30.368,3.814 -28.893,-0.413 -25.981,-3.98C-20.1,-11.187 -9.64,-11.624 -3.142,-4.947C-2.229,-4.009 -1.395,-2.995 -0.238,-1.693" style="fill-rule:nonzero;"/>
                </g>
                <g transform="matrix(1,0,0,1,450.296,59.1753)">
                    <path d="M0,-1.188C-0.329,-4.351 -0.631,-8.938 -1.334,-13.463C-1.875,-16.943 -3.121,-20.271 -6.068,-22.552C-11.988,-27.136 -20.455,-24.23 -22.998,-16.784C-24.958,-11.045 -25.011,-5.085 -25.027,0.876C-25.04,5.752 -24.814,10.605 -23.31,15.293C-22.259,18.566 -20.583,21.419 -17.272,22.877C-11.115,25.588 -4.674,22.834 -2.256,16.55C-0.229,11.28 -0.362,5.731 0,-1.188M8.802,-0.369C8.544,6.03 7.924,12.357 5.675,18.438C2.701,26.482 -3.124,30.639 -11.744,30.877C-18.219,31.057 -23.904,29.457 -27.972,24.053C-30.692,20.438 -32.034,16.238 -32.853,11.851C-34.083,5.254 -34.379,-1.405 -33.81,-8.073C-33.434,-12.483 -32.532,-16.819 -30.543,-20.841C-27.666,-26.661 -23.153,-30.374 -16.624,-31.339C-10.501,-32.245 -4.699,-31.515 0.254,-27.425C4.316,-24.07 6.511,-19.524 7.477,-14.511C8.371,-9.873 8.685,-5.124 9.254,-0.423C9.103,-0.405 8.952,-0.387 8.802,-0.369" style="fill-rule:nonzero;"/>
                </g>
                <g transform="matrix(1,0,0,1,185.195,61.3012)">
                    <path d="M0,-4.769C-0.002,-4.769 -0.124,-4.804 -0.209,-4.763C-4.385,-2.744 -8.538,-0.673 -12.739,1.295C-15.59,2.631 -17.467,4.876 -17.924,7.835C-18.358,10.644 -18.306,13.601 -17.966,16.434C-17.681,18.818 -16.079,20.484 -13.579,21.192C-7.134,23.015 -0.595,18.999 -0.088,12.332C0.341,6.688 0,0.987 0,-4.769M-17.132,-17.043L-24.503,-17.043C-25.495,-25.45 -21.631,-32.753 -12.423,-33.942C-9.048,-34.377 -5.499,-34.396 -2.146,-33.868C4.74,-32.783 8.752,-27.837 8.827,-20.623C8.95,-8.749 8.879,3.127 8.89,15.002C8.891,15.768 8.886,16.534 8.896,17.3C8.928,19.833 9.638,20.586 12.193,20.791C12.731,20.834 13.271,20.846 13.978,20.881L13.978,27.029C11.124,27.598 8.111,27.755 5.327,26.451C2.22,24.996 2.267,21.707 1.748,19.13C0.145,21.042 -1.306,23.176 -3.148,24.892C-8.226,29.627 -16.701,28.837 -21.368,25.784C-23.782,24.204 -25.178,21.835 -25.863,19.14C-26.893,15.084 -27.163,10.925 -26.399,6.791C-25.435,1.57 -22.43,-2.106 -17.492,-4.133C-12.391,-6.227 -7.289,-8.321 -2.153,-10.327C0.083,-11.2 1.142,-12.702 1.069,-15.075C1.016,-16.824 1.093,-18.58 0.981,-20.324C0.744,-24.021 -1.064,-26.312 -4.712,-26.881C-7.044,-27.245 -9.524,-27.198 -11.864,-26.847C-14.932,-26.386 -16.452,-24.437 -16.778,-21.35C-16.927,-19.946 -17.012,-18.534 -17.132,-17.043" style="fill-rule:nonzero;"/>
                </g>
                <g transform="matrix(1,0,0,1,319.071,62.0973)">
                    <path d="M0,-9.445C-0.025,-13.365 -0.104,-17.182 -1.302,-20.865C-2.679,-25.098 -5.411,-27.142 -9.641,-27.229C-13.682,-27.312 -16.882,-25.143 -18.35,-21.228C-19.771,-17.442 -20.069,-13.487 -20.063,-9.445L0,-9.445ZM1.142,6.674L8.886,6.674C8.662,8.959 8.574,11.222 8.198,13.436C6.823,21.544 0.817,27.284 -6.789,27.891C-16.897,28.696 -23.416,24.207 -26.293,14.434C-28.213,7.913 -28.614,1.229 -28.391,-5.52C-28.22,-10.723 -27.689,-15.871 -25.986,-20.83C-24.394,-25.469 -22.097,-29.606 -17.797,-32.348C-8.715,-38.141 4.188,-33.298 7.259,-23.012C8.778,-17.923 9.279,-8.91 9.173,-2.676L-19.19,-2.676C-19.395,-2.417 -19.517,-2.335 -19.519,-2.25C-19.637,3.001 -19.571,8.223 -18.073,13.339C-16.32,19.321 -11.02,22.31 -5.38,20.316C-1.564,18.967 -0.063,15.814 0.627,12.179C0.96,10.426 0.971,8.614 1.142,6.674" style="fill-rule:nonzero;"/>
                </g>
                <g transform="matrix(1,0,0,1,109.258,26.2642)">
                    <path d="M0,61.978L0,2.79L8.136,2.79L8.136,8.446C8.374,8.642 8.611,8.837 8.848,9.033C8.975,8.621 8.984,8.104 9.246,7.812C14.476,1.977 20.893,-0.005 28.513,1.953C33.34,3.194 36.691,7.047 37.426,12.37C37.65,13.987 37.761,15.631 37.764,17.264C37.789,31.493 37.778,45.721 37.778,59.951L37.778,61.983L29.465,61.983L29.465,60.059C29.464,46.761 29.473,33.462 29.453,20.165C29.45,18.635 29.371,17.096 29.178,15.581C28.59,10.948 25.856,8.466 20.787,8.349C15.026,8.216 9.72,12.251 8.841,16.986C8.455,19.065 8.262,21.209 8.253,23.326C8.199,35.529 8.227,47.733 8.227,59.937L8.227,61.978L0,61.978Z" style="fill-rule:nonzero;"/>
                </g>
                <g transform="matrix(1,0,0,1,480.91,26.612)">
                    <path d="M0,61.681L-8.234,61.681L-8.234,2.429L-0.011,2.429C-0.125,4.477 -0.236,6.456 -0.346,8.419C1.704,6.709 3.511,4.847 5.643,3.496C10.925,0.149 16.634,0 22.277,2.383C26.872,4.323 28.718,8.377 29.253,13.094C29.414,14.503 29.408,15.936 29.41,17.358C29.42,31.368 29.416,45.378 29.416,59.388L29.416,61.62L21.088,61.62L21.088,59.728C21.074,45.445 21.104,31.16 21.011,16.877C20.99,13.739 20.179,10.697 17.061,9.114C10.569,5.819 1.627,10.211 0.368,17.077C0.113,18.464 0.019,19.899 0.016,21.313C-0.011,34.119 0,46.925 0,59.732L0,61.681Z" style="fill-rule:nonzero;"/>
                </g>
                <g transform="matrix(1,0,0,1,54.1543,108.742)">
                    <path d="M0,-79.731L8.902,-79.731C13.344,-62.621 17.8,-45.457 22.256,-28.292C22.361,-28.27 22.466,-28.25 22.57,-28.228C22.747,-28.805 22.943,-29.377 23.098,-29.96C27.396,-46.178 31.682,-62.4 36.019,-78.609C36.144,-79.079 36.776,-79.736 37.194,-79.753C39.81,-79.858 42.432,-79.806 45.222,-79.806C43.974,-75.765 42.776,-71.877 41.572,-67.992C36.977,-53.16 32.418,-38.316 27.762,-23.502C26.262,-18.729 24.678,-13.966 22.823,-9.322C20.269,-2.923 15.224,0.127 8.365,-0.26C6.415,-0.371 4.478,-0.694 2.468,-0.927L2.468,-8.001C4.924,-7.801 7.354,-7.453 9.784,-7.445C13.042,-7.433 15.214,-9.286 16.455,-12.166C17.359,-14.265 18.088,-16.446 18.773,-18.628C18.949,-19.188 18.757,-19.923 18.569,-20.526C13.261,-37.477 7.931,-54.421 2.607,-71.368C1.745,-74.113 0.895,-76.861 0,-79.731" style="fill-rule:nonzero;"/>
                </g>
                <g transform="matrix(1,0,0,1,184.567,119.676)">
                    <path d="M0,26.503C2.415,14.911 4.829,3.32 7.256,-8.338L15.305,-8.338C17.675,3.301 20.038,14.9 22.4,26.5C22.505,26.513 22.61,26.526 22.715,26.539C24.921,14.948 27.126,3.358 29.349,-8.32L36.45,-8.32C33.036,6.078 29.64,20.398 26.228,34.787L18.759,34.787C16.258,23.178 13.748,11.526 11.238,-0.124C11.129,-0.115 11.021,-0.106 10.913,-0.098C9.571,6.405 8.23,12.908 6.888,19.41C5.927,24.065 4.923,28.712 4.035,33.381C3.821,34.511 3.453,34.961 2.253,34.907C0.127,34.811 -2.006,34.88 -4.209,34.88C-7.579,20.45 -10.917,6.152 -14.318,-8.41C-12.029,-8.41 -9.916,-8.458 -7.81,-8.357C-7.508,-8.343 -7.069,-7.647 -6.982,-7.21C-4.864,3.399 -2.787,14.016 -0.7,24.631C-0.574,25.27 -0.43,25.905 -0.294,26.542C-0.196,26.528 -0.098,26.516 0,26.503" style="fill-rule:nonzero;"/>
                </g>
                <g transform="matrix(1,0,0,1,399.025,121.006)">
                    <path d="M0,12.191C0.587,15.854 0.946,19.844 1.918,23.68C2.918,27.63 5.605,29.166 9.588,28.754C12.896,28.414 14.782,26.346 15.731,23.368C17.339,18.324 17.286,13.111 16.893,7.921C16.709,5.491 16.24,3.035 15.527,0.704C14.313,-3.263 11.714,-5.142 8.125,-5.08C4.858,-5.024 2.59,-3.176 1.628,0.988C0.81,4.532 0.555,8.206 0,12.191M23.317,33.479L17.083,33.479L17.083,28.814C15.65,30.924 14.054,32.632 11.804,33.666C6.182,36.25 -0.55,33.846 -3.616,28.134C-5.464,24.691 -6.2,20.917 -6.462,17.098C-6.914,10.533 -6.86,3.993 -4.65,-2.361C-1.861,-10.38 7.252,-13.538 13.598,-8.541C14.713,-7.663 15.559,-6.444 16.695,-5.201L16.695,-24.059L23.317,-24.059L23.317,33.479Z" style="fill-rule:nonzero;"/>
                </g>
                <g transform="matrix(1,0,0,1,247.634,137.307)">
                    <path d="M0,-9.003C0.161,-12.165 0.063,-15.146 -1.267,-17.944C-3.414,-22.462 -9.297,-23.321 -12.578,-19.535C-15.186,-16.525 -15.406,-12.836 -15.399,-9.003L0,-9.003ZM7.035,-3.606L-15.671,-3.606C-15.509,0.728 -15.726,4.935 -13.889,8.894C-12.558,11.765 -10.25,13.063 -7.197,13.027C-4.211,12.991 -2.051,11.474 -1.031,8.699C-0.381,6.932 -0.138,5.016 0.311,3.063L6.821,3.063C6.531,7.93 5.088,12.194 1.288,15.367C-5.865,21.339 -17.535,18.382 -20.712,9.778C-21.443,7.797 -21.947,5.685 -22.222,3.59C-23.045,-2.684 -22.96,-8.947 -21.604,-15.166C-19.375,-25.378 -9.293,-30.342 -0.232,-25.666C2.829,-24.086 4.603,-21.483 5.672,-18.318C6.837,-14.868 7.517,-7.769 7.035,-3.606" style="fill-rule:nonzero;"/>
                </g>
                <g transform="matrix(1,0,0,1,469.275,134.86)">
                    <path d="M0,-6.567C0.058,-9.731 0.02,-12.715 -1.32,-15.509C-3.479,-20.013 -9.364,-20.878 -12.631,-17.097C-15.228,-14.093 -15.501,-10.42 -15.375,-6.567L0,-6.567ZM0.266,5.526L6.586,5.526C7.38,13.143 1.155,20.302 -6.569,20.766C-15.411,21.297 -20.72,16.675 -22.15,7.073C-23.149,0.368 -23.077,-6.318 -21.593,-12.976C-19.367,-22.962 -9.149,-27.864 -0.204,-23.181C2.79,-21.613 4.589,-19.052 5.6,-15.945C7.142,-11.202 7.184,-6.293 7.033,-1.207L-15.641,-1.207C-15.684,3.212 -15.76,7.453 -13.896,11.445C-12.591,14.24 -10.284,15.501 -7.305,15.475C-4.333,15.449 -2.139,13.992 -1.119,11.193C-0.475,9.423 -0.206,7.517 0.266,5.526" style="fill-rule:nonzero;"/>
                </g>
                <g transform="matrix(1,0,0,1,362.902,151.72)">
                    <path d="M0,-40.37L0,-35.857C0.231,-35.883 0.396,-35.86 0.423,-35.911C3.192,-41.003 10.164,-43.063 16.325,-40.63C20.381,-39.028 21.815,-35.524 21.923,-31.561C22.133,-23.799 22.071,-16.028 22.108,-8.262C22.125,-4.659 22.111,-1.057 22.111,2.691L15.349,2.691L15.349,0.892C15.349,-8.08 15.359,-17.052 15.339,-26.023C15.336,-27.388 15.277,-28.763 15.104,-30.114C14.542,-34.49 11.472,-36.582 7.143,-35.604C2.65,-34.59 0.344,-31.502 0.327,-26.32C0.298,-17.349 0.318,-8.377 0.318,0.596L0.318,2.693L-6.324,2.693L-6.324,-40.37L0,-40.37Z" style="fill-rule:nonzero;"/>
                </g>
                <g transform="matrix(1,0,0,1,481.467,126.011)">
                    <path d="M0,14.346L6.515,14.346C6.815,16.027 6.974,17.709 7.43,19.308C8.33,22.463 10.604,24.03 14.349,24.308C17.33,24.531 20.189,23.005 21.31,20.595C22.574,17.875 22.26,14.299 20.182,12.519C18.729,11.273 16.894,10.396 15.112,9.625C12.91,8.672 10.573,8.033 8.316,7.2C2.986,5.234 0.502,1.407 0.781,-4.335C1.051,-9.896 4.231,-13.915 9.54,-15.249C13.331,-16.202 17.148,-16.264 20.869,-14.921C25.738,-13.163 27.251,-9.144 27.684,-4.47C27.748,-3.773 27.692,-3.065 27.692,-2.249L21.124,-2.249C20.908,-3.675 20.813,-5.099 20.462,-6.457C19.704,-9.388 17.544,-10.751 14.226,-10.552C10.385,-10.324 8.153,-8.613 7.699,-5.551C7.206,-2.219 8.241,0.027 11.342,1.363C14.397,2.68 17.586,3.691 20.731,4.797C25.027,6.309 28.116,8.968 28.625,13.704C29.208,19.134 28.264,24.095 23.288,27.431C18.547,30.61 9.206,30.367 4.72,26.858C0.684,23.7 -0.019,19.245 0,14.346" style="fill-rule:nonzero;"/>
                </g>
                <g transform="matrix(-1,0,0,1,797.949,-38.657)">
                    <rect x="394.917" y="67.704" width="8.115" height="59.249"/>
                </g>
                <g transform="matrix(1,0,0,1,0,109.77)">
                    <rect x="340.517" y="1.563" width="6.495" height="43.104"/>
                </g>
                <g transform="matrix(1,0,0,1,0,109.832)">
                    <rect x="431.896" y="1.549" width="6.577" height="43.07"/>
                </g>
                <g transform="matrix(1,0,0,1,0,-129.026)">
                    <rect x="394.868" y="137.294" width="8.212" height="10.438"/>
                </g>
                <g transform="matrix(-1,0,0,1,687.497,45.413)">
                    <rect x="340.5" y="51.527" width="6.497" height="7.533"/>
                </g>
                <g transform="matrix(1,0,0,1,438.461,96.9833)">
                    <path d="M0,7.587L-6.522,7.587L-6.522,0L0,0L0,7.587Z" style="fill-rule:nonzero;"/>
                </g>
            </g>
        </g>
    </g>
</svg>
